<?xml version="1.0" encoding="UTF-8"?><svg id="Calque_1" xmlns="http://www.w3.org/2000/svg" xmlns:xlink="http://www.w3.org/1999/xlink" viewBox="0 0 1920 1080"><defs><style>.cls-1{fill:none;}.cls-2{clip-path:url(#clippath);}.cls-3{fill:#fff;}.cls-4{clip-path:url(#clippath-1);}.cls-5{clip-path:url(#clippath-4);}.cls-6{clip-path:url(#clippath-3);}.cls-7{clip-path:url(#clippath-2);}.cls-8{clip-path:url(#clippath-7);}.cls-9{clip-path:url(#clippath-8);}.cls-10{clip-path:url(#clippath-6);}.cls-11{clip-path:url(#clippath-5);}.cls-12{clip-path:url(#clippath-9);}.cls-13{clip-path:url(#clippath-60);}.cls-14{clip-path:url(#clippath-69);}.cls-15{clip-path:url(#clippath-20);}.cls-16{clip-path:url(#clippath-21);}.cls-17{clip-path:url(#clippath-24);}.cls-18{clip-path:url(#clippath-23);}.cls-19{clip-path:url(#clippath-22);}.cls-20{clip-path:url(#clippath-25);}.cls-21{clip-path:url(#clippath-44);}.cls-22{clip-path:url(#clippath-45);}.cls-23{clip-path:url(#clippath-40);}.cls-24{clip-path:url(#clippath-42);}.cls-25{clip-path:url(#clippath-41);}.cls-26{clip-path:url(#clippath-47);}.cls-27{clip-path:url(#clippath-43);}.cls-28{clip-path:url(#clippath-46);}.cls-29{clip-path:url(#clippath-48);}.cls-30{clip-path:url(#clippath-49);}.cls-31{clip-path:url(#clippath-84);}.cls-32{clip-path:url(#clippath-88);}.cls-33{clip-path:url(#clippath-86);}.cls-34{clip-path:url(#clippath-81);}.cls-35{clip-path:url(#clippath-83);}.cls-36{clip-path:url(#clippath-85);}.cls-37{clip-path:url(#clippath-80);}.cls-38{clip-path:url(#clippath-87);}.cls-39{clip-path:url(#clippath-82);}.cls-40{clip-path:url(#clippath-98);}.cls-41{clip-path:url(#clippath-89);}.cls-42{clip-path:url(#clippath-27);}.cls-43{clip-path:url(#clippath-28);}.cls-44{clip-path:url(#clippath-26);}.cls-45{clip-path:url(#clippath-29);}.cls-46{clip-path:url(#clippath-34);}.cls-47{clip-path:url(#clippath-35);}.cls-48{clip-path:url(#clippath-36);}.cls-49{clip-path:url(#clippath-37);}.cls-50{clip-path:url(#clippath-39);}.cls-51{clip-path:url(#clippath-33);}.cls-52{clip-path:url(#clippath-32);}.cls-53{clip-path:url(#clippath-30);}.cls-54{clip-path:url(#clippath-38);}.cls-55{clip-path:url(#clippath-31);}.cls-56{clip-path:url(#clippath-95);}.cls-57{clip-path:url(#clippath-99);}.cls-58{clip-path:url(#clippath-93);}.cls-59{clip-path:url(#clippath-94);}.cls-60{clip-path:url(#clippath-91);}.cls-61{clip-path:url(#clippath-96);}.cls-62{clip-path:url(#clippath-90);}.cls-63{clip-path:url(#clippath-92);}.cls-64{clip-path:url(#clippath-97);}.cls-65{clip-path:url(#clippath-53);}.cls-66{clip-path:url(#clippath-54);}.cls-67{clip-path:url(#clippath-50);}.cls-68{clip-path:url(#clippath-51);}.cls-69{clip-path:url(#clippath-52);}.cls-70{clip-path:url(#clippath-55);}.cls-71{clip-path:url(#clippath-56);}.cls-72{clip-path:url(#clippath-57);}.cls-73{clip-path:url(#clippath-58);}.cls-74{clip-path:url(#clippath-79);}.cls-75{clip-path:url(#clippath-61);}.cls-76{clip-path:url(#clippath-64);}.cls-77{clip-path:url(#clippath-62);}.cls-78{clip-path:url(#clippath-68);}.cls-79{clip-path:url(#clippath-67);}.cls-80{clip-path:url(#clippath-73);}.cls-81{clip-path:url(#clippath-59);}.cls-82{clip-path:url(#clippath-65);}.cls-83{clip-path:url(#clippath-63);}.cls-84{clip-path:url(#clippath-66);}.cls-85{clip-path:url(#clippath-70);}.cls-86{clip-path:url(#clippath-75);}.cls-87{clip-path:url(#clippath-72);}.cls-88{clip-path:url(#clippath-78);}.cls-89{clip-path:url(#clippath-71);}.cls-90{clip-path:url(#clippath-77);}.cls-91{clip-path:url(#clippath-74);}.cls-92{clip-path:url(#clippath-76);}.cls-93{clip-path:url(#clippath-14);}.cls-94{clip-path:url(#clippath-13);}.cls-95{clip-path:url(#clippath-12);}.cls-96{clip-path:url(#clippath-10);}.cls-97{clip-path:url(#clippath-15);}.cls-98{clip-path:url(#clippath-17);}.cls-99{clip-path:url(#clippath-16);}.cls-100{clip-path:url(#clippath-19);}.cls-101{clip-path:url(#clippath-11);}.cls-102{clip-path:url(#clippath-18);}.cls-103{clip-path:url(#clippath-142);}.cls-104{clip-path:url(#clippath-141);}.cls-105{clip-path:url(#clippath-140);}.cls-106{clip-path:url(#clippath-113);}.cls-107{clip-path:url(#clippath-112);}.cls-108{clip-path:url(#clippath-111);}.cls-109{clip-path:url(#clippath-110);}.cls-110{clip-path:url(#clippath-115);}.cls-111{clip-path:url(#clippath-114);}.cls-112{clip-path:url(#clippath-116);}.cls-113{clip-path:url(#clippath-117);}.cls-114{clip-path:url(#clippath-118);}.cls-115{clip-path:url(#clippath-119);}.cls-116{clip-path:url(#clippath-105);}.cls-117{clip-path:url(#clippath-100);}.cls-118{clip-path:url(#clippath-102);}.cls-119{clip-path:url(#clippath-103);}.cls-120{clip-path:url(#clippath-107);}.cls-121{clip-path:url(#clippath-109);}.cls-122{clip-path:url(#clippath-104);}.cls-123{clip-path:url(#clippath-101);}.cls-124{clip-path:url(#clippath-108);}.cls-125{clip-path:url(#clippath-106);}.cls-126{clip-path:url(#clippath-136);}.cls-127{clip-path:url(#clippath-138);}.cls-128{clip-path:url(#clippath-135);}.cls-129{clip-path:url(#clippath-132);}.cls-130{clip-path:url(#clippath-137);}.cls-131{clip-path:url(#clippath-130);}.cls-132{clip-path:url(#clippath-133);}.cls-133{clip-path:url(#clippath-134);}.cls-134{clip-path:url(#clippath-139);}.cls-135{clip-path:url(#clippath-131);}.cls-136{clip-path:url(#clippath-129);}.cls-137{clip-path:url(#clippath-122);}.cls-138{clip-path:url(#clippath-126);}.cls-139{clip-path:url(#clippath-125);}.cls-140{clip-path:url(#clippath-120);}.cls-141{clip-path:url(#clippath-121);}.cls-142{clip-path:url(#clippath-123);}.cls-143{clip-path:url(#clippath-124);}.cls-144{clip-path:url(#clippath-127);}.cls-145{clip-path:url(#clippath-128);}</style><clipPath id="clippath"><rect class="cls-1" width="1920" height="1080"/></clipPath><clipPath id="clippath-1"><rect class="cls-1" width="1920" height="1080"/></clipPath><clipPath id="clippath-2"><rect class="cls-1" width="1920" height="1080"/></clipPath><clipPath id="clippath-3"><rect class="cls-1" width="1920" height="1080"/></clipPath><clipPath id="clippath-4"><rect class="cls-1" width="1920" height="1080"/></clipPath><clipPath id="clippath-5"><rect class="cls-1" width="1920" height="1080"/></clipPath><clipPath id="clippath-6"><rect class="cls-1" width="1920" height="1080"/></clipPath><clipPath id="clippath-7"><rect class="cls-1" width="1920" height="1080"/></clipPath><clipPath id="clippath-8"><rect class="cls-1" width="1920" height="1080"/></clipPath><clipPath id="clippath-9"><rect class="cls-1" width="1920" height="1080"/></clipPath><clipPath id="clippath-10"><rect class="cls-1" width="1920" height="1080"/></clipPath><clipPath id="clippath-11"><rect class="cls-1" width="1920" height="1080"/></clipPath><clipPath id="clippath-12"><rect class="cls-1" width="1920" height="1080"/></clipPath><clipPath id="clippath-13"><rect class="cls-1" width="1920" height="1080"/></clipPath><clipPath id="clippath-14"><rect class="cls-1" width="1920" height="1080"/></clipPath><clipPath id="clippath-15"><rect class="cls-1" width="1920" height="1080"/></clipPath><clipPath id="clippath-16"><rect class="cls-1" width="1920" height="1080"/></clipPath><clipPath id="clippath-17"><rect class="cls-1" width="1920" height="1080"/></clipPath><clipPath id="clippath-18"><rect class="cls-1" width="1920" height="1080"/></clipPath><clipPath id="clippath-19"><rect class="cls-1" width="1920" height="1080"/></clipPath><clipPath id="clippath-20"><rect class="cls-1" width="1920" height="1080"/></clipPath><clipPath id="clippath-21"><rect class="cls-1" width="1920" height="1080"/></clipPath><clipPath id="clippath-22"><rect class="cls-1" width="1920" height="1080"/></clipPath><clipPath id="clippath-23"><rect class="cls-1" width="1920" height="1080"/></clipPath><clipPath id="clippath-24"><rect class="cls-1" width="1920" height="1080"/></clipPath><clipPath id="clippath-25"><rect class="cls-1" width="1920" height="1080"/></clipPath><clipPath id="clippath-26"><rect class="cls-1" width="1920" height="1080"/></clipPath><clipPath id="clippath-27"><rect class="cls-1" width="1920" height="1080"/></clipPath><clipPath id="clippath-28"><rect class="cls-1" width="1920" height="1080"/></clipPath><clipPath id="clippath-29"><rect class="cls-1" width="1920" height="1080"/></clipPath><clipPath id="clippath-30"><rect class="cls-1" width="1920" height="1080"/></clipPath><clipPath id="clippath-31"><rect class="cls-1" width="1920" height="1080"/></clipPath><clipPath id="clippath-32"><rect class="cls-1" width="1920" height="1080"/></clipPath><clipPath id="clippath-33"><rect class="cls-1" width="1920" height="1080"/></clipPath><clipPath id="clippath-34"><rect class="cls-1" width="1920" height="1080"/></clipPath><clipPath id="clippath-35"><rect class="cls-1" width="1920" height="1080"/></clipPath><clipPath id="clippath-36"><rect class="cls-1" width="1920" height="1080"/></clipPath><clipPath id="clippath-37"><rect class="cls-1" width="1920" height="1080"/></clipPath><clipPath id="clippath-38"><rect class="cls-1" width="1920" height="1080"/></clipPath><clipPath id="clippath-39"><rect class="cls-1" width="1920" height="1080"/></clipPath><clipPath id="clippath-40"><rect class="cls-1" width="1920" height="1080"/></clipPath><clipPath id="clippath-41"><rect class="cls-1" width="1920" height="1080"/></clipPath><clipPath id="clippath-42"><rect class="cls-1" width="1920" height="1080"/></clipPath><clipPath id="clippath-43"><rect class="cls-1" width="1920" height="1080"/></clipPath><clipPath id="clippath-44"><rect class="cls-1" width="1920" height="1080"/></clipPath><clipPath id="clippath-45"><rect class="cls-1" width="1920" height="1080"/></clipPath><clipPath id="clippath-46"><rect class="cls-1" width="1920" height="1080"/></clipPath><clipPath id="clippath-47"><rect class="cls-1" width="1920" height="1080"/></clipPath><clipPath id="clippath-48"><rect class="cls-1" width="1920" height="1080"/></clipPath><clipPath id="clippath-49"><rect class="cls-1" width="1920" height="1080"/></clipPath><clipPath id="clippath-50"><rect class="cls-1" width="1920" height="1080"/></clipPath><clipPath id="clippath-51"><rect class="cls-1" width="1920" height="1080"/></clipPath><clipPath id="clippath-52"><rect class="cls-1" width="1920" height="1080"/></clipPath><clipPath id="clippath-53"><rect class="cls-1" width="1920" height="1080"/></clipPath><clipPath id="clippath-54"><rect class="cls-1" width="1920" height="1080"/></clipPath><clipPath id="clippath-55"><rect class="cls-1" width="1920" height="1080"/></clipPath><clipPath id="clippath-56"><rect class="cls-1" width="1920" height="1080"/></clipPath><clipPath id="clippath-57"><rect class="cls-1" width="1920" height="1080"/></clipPath><clipPath id="clippath-58"><rect class="cls-1" width="1920" height="1080"/></clipPath><clipPath id="clippath-59"><rect class="cls-1" width="1920" height="1080"/></clipPath><clipPath id="clippath-60"><rect class="cls-1" width="1920" height="1080"/></clipPath><clipPath id="clippath-61"><rect class="cls-1" width="1920" height="1080"/></clipPath><clipPath id="clippath-62"><rect class="cls-1" width="1920" height="1080"/></clipPath><clipPath id="clippath-63"><rect class="cls-1" width="1920" height="1080"/></clipPath><clipPath id="clippath-64"><rect class="cls-1" width="1920" height="1080"/></clipPath><clipPath id="clippath-65"><rect class="cls-1" width="1920" height="1080"/></clipPath><clipPath id="clippath-66"><rect class="cls-1" width="1920" height="1080"/></clipPath><clipPath id="clippath-67"><rect class="cls-1" width="1920" height="1080"/></clipPath><clipPath id="clippath-68"><rect class="cls-1" width="1920" height="1080"/></clipPath><clipPath id="clippath-69"><rect class="cls-1" width="1920" height="1080"/></clipPath><clipPath id="clippath-70"><rect class="cls-1" width="1920" height="1080"/></clipPath><clipPath id="clippath-71"><rect class="cls-1" width="1920" height="1080"/></clipPath><clipPath id="clippath-72"><rect class="cls-1" width="1920" height="1080"/></clipPath><clipPath id="clippath-73"><rect class="cls-1" width="1920" height="1080"/></clipPath><clipPath id="clippath-74"><rect class="cls-1" width="1920" height="1080"/></clipPath><clipPath id="clippath-75"><rect class="cls-1" width="1920" height="1080"/></clipPath><clipPath id="clippath-76"><rect class="cls-1" width="1920" height="1080"/></clipPath><clipPath id="clippath-77"><rect class="cls-1" width="1920" height="1080"/></clipPath><clipPath id="clippath-78"><rect class="cls-1" width="1920" height="1080"/></clipPath><clipPath id="clippath-79"><rect class="cls-1" width="1920" height="1080"/></clipPath><clipPath id="clippath-80"><rect class="cls-1" width="1920" height="1080"/></clipPath><clipPath id="clippath-81"><rect class="cls-1" width="1920" height="1080"/></clipPath><clipPath id="clippath-82"><rect class="cls-1" width="1920" height="1080"/></clipPath><clipPath id="clippath-83"><rect class="cls-1" width="1920" height="1080"/></clipPath><clipPath id="clippath-84"><rect class="cls-1" width="1920" height="1080"/></clipPath><clipPath id="clippath-85"><rect class="cls-1" width="1920" height="1080"/></clipPath><clipPath id="clippath-86"><rect class="cls-1" width="1920" height="1080"/></clipPath><clipPath id="clippath-87"><rect class="cls-1" width="1920" height="1080"/></clipPath><clipPath id="clippath-88"><rect class="cls-1" width="1920" height="1080"/></clipPath><clipPath id="clippath-89"><rect class="cls-1" width="1920" height="1080"/></clipPath><clipPath id="clippath-90"><rect class="cls-1" width="1920" height="1080"/></clipPath><clipPath id="clippath-91"><rect class="cls-1" width="1920" height="1080"/></clipPath><clipPath id="clippath-92"><rect class="cls-1" width="1920" height="1080"/></clipPath><clipPath id="clippath-93"><rect class="cls-1" width="1920" height="1080"/></clipPath><clipPath id="clippath-94"><rect class="cls-1" width="1920" height="1080"/></clipPath><clipPath id="clippath-95"><rect class="cls-1" width="1920" height="1080"/></clipPath><clipPath id="clippath-96"><rect class="cls-1" width="1920" height="1080"/></clipPath><clipPath id="clippath-97"><rect class="cls-1" width="1920" height="1080"/></clipPath><clipPath id="clippath-98"><rect class="cls-1" width="1920" height="1080"/></clipPath><clipPath id="clippath-99"><rect class="cls-1" width="1920" height="1080"/></clipPath><clipPath id="clippath-100"><rect class="cls-1" width="1920" height="1080"/></clipPath><clipPath id="clippath-101"><rect class="cls-1" width="1920" height="1080"/></clipPath><clipPath id="clippath-102"><rect class="cls-1" width="1920" height="1080"/></clipPath><clipPath id="clippath-103"><rect class="cls-1" width="1920" height="1080"/></clipPath><clipPath id="clippath-104"><rect class="cls-1" width="1920" height="1080"/></clipPath><clipPath id="clippath-105"><rect class="cls-1" width="1920" height="1080"/></clipPath><clipPath id="clippath-106"><rect class="cls-1" width="1920" height="1080"/></clipPath><clipPath id="clippath-107"><rect class="cls-1" width="1920" height="1080"/></clipPath><clipPath id="clippath-108"><rect class="cls-1" width="1920" height="1080"/></clipPath><clipPath id="clippath-109"><rect class="cls-1" width="1920" height="1080"/></clipPath><clipPath id="clippath-110"><rect class="cls-1" width="1920" height="1080"/></clipPath><clipPath id="clippath-111"><rect class="cls-1" width="1920" height="1080"/></clipPath><clipPath id="clippath-112"><rect class="cls-1" width="1920" height="1080"/></clipPath><clipPath id="clippath-113"><rect class="cls-1" width="1920" height="1080"/></clipPath><clipPath id="clippath-114"><rect class="cls-1" width="1920" height="1080"/></clipPath><clipPath id="clippath-115"><rect class="cls-1" width="1920" height="1080"/></clipPath><clipPath id="clippath-116"><rect class="cls-1" width="1920" height="1080"/></clipPath><clipPath id="clippath-117"><rect class="cls-1" width="1920" height="1080"/></clipPath><clipPath id="clippath-118"><rect class="cls-1" width="1920" height="1080"/></clipPath><clipPath id="clippath-119"><rect class="cls-1" width="1920" height="1080"/></clipPath><clipPath id="clippath-120"><rect class="cls-1" width="1920" height="1080"/></clipPath><clipPath id="clippath-121"><rect class="cls-1" width="1920" height="1080"/></clipPath><clipPath id="clippath-122"><rect class="cls-1" width="1920" height="1080"/></clipPath><clipPath id="clippath-123"><rect class="cls-1" width="1920" height="1080"/></clipPath><clipPath id="clippath-124"><rect class="cls-1" width="1920" height="1080"/></clipPath><clipPath id="clippath-125"><rect class="cls-1" width="1920" height="1080"/></clipPath><clipPath id="clippath-126"><rect class="cls-1" width="1920" height="1080"/></clipPath><clipPath id="clippath-127"><rect class="cls-1" width="1920" height="1080"/></clipPath><clipPath id="clippath-128"><rect class="cls-1" width="1920" height="1080"/></clipPath><clipPath id="clippath-129"><rect class="cls-1" width="1920" height="1080"/></clipPath><clipPath id="clippath-130"><rect class="cls-1" width="1920" height="1080"/></clipPath><clipPath id="clippath-131"><rect class="cls-1" width="1920" height="1080"/></clipPath><clipPath id="clippath-132"><rect class="cls-1" width="1920" height="1080"/></clipPath><clipPath id="clippath-133"><rect class="cls-1" width="1920" height="1080"/></clipPath><clipPath id="clippath-134"><rect class="cls-1" width="1920" height="1080"/></clipPath><clipPath id="clippath-135"><rect class="cls-1" width="1920" height="1080"/></clipPath><clipPath id="clippath-136"><rect class="cls-1" width="1920" height="1080"/></clipPath><clipPath id="clippath-137"><rect class="cls-1" width="1920" height="1080"/></clipPath><clipPath id="clippath-138"><rect class="cls-1" width="1920" height="1080"/></clipPath><clipPath id="clippath-139"><rect class="cls-1" width="1920" height="1080"/></clipPath><clipPath id="clippath-140"><rect class="cls-1" width="1920" height="1080"/></clipPath><clipPath id="clippath-141"><rect class="cls-1" width="1920" height="1080"/></clipPath><clipPath id="clippath-142"><rect class="cls-1" width="1920" height="1080"/></clipPath></defs><rect width="1920" height="1080"/><g class="cls-2"><path class="cls-3" d="m935.37,158.99c-2.81,12.33-13.85,21.55-27.01,21.55-15.28,0-27.71-12.43-27.71-27.71,0-13.38,9.54-24.58,22.17-27.15v-8.76c-17.44,2.67-30.79,17.73-30.79,35.91,0,20.07,16.27,36.33,36.33,36.33,17.96,0,32.88-13.04,35.8-30.18h-8.79Z"/></g><polygon class="cls-3" points="911.56 150.5 942.39 119.67 942.39 150.99 943.62 150.99 943.62 117.29 910.82 117.29 910.82 118.53 941.79 118.53 910.69 149.63 911.56 150.5"/><g class="cls-4"><path class="cls-3" d="m935.37,547.41c-2.81,12.33-13.85,21.55-27.01,21.55-15.28,0-27.71-12.43-27.71-27.71,0-13.38,9.54-24.58,22.17-27.15v-8.76c-17.44,2.67-30.79,17.73-30.79,35.91,0,20.07,16.27,36.33,36.33,36.33,17.96,0,32.88-13.04,35.8-30.18h-8.79Z"/></g><polygon class="cls-3" points="911.56 538.92 942.39 508.09 942.39 539.41 943.62 539.41 943.62 505.71 910.82 505.71 910.82 506.95 941.79 506.95 910.69 538.05 911.56 538.92"/><g class="cls-7"><path class="cls-3" d="m908.09,276.4c-15.28,0-27.71-12.43-27.71-27.71s12.43-27.71,27.71-27.71,27.71,12.43,27.71,27.71-12.43,27.71-27.71,27.71m0-64.05c-20.07,0-36.33,16.27-36.33,36.33s16.27,36.33,36.33,36.33,36.33-16.27,36.33-36.33-16.27-36.33-36.33-36.33"/></g><rect class="cls-3" x="907.47" y="229.6" width="1.23" height="26.48"/><rect class="cls-3" x="907.47" y="259.15" width="1.23" height="8.62"/><g class="cls-6"><path class="cls-3" d="m908.09,664.82c-15.28,0-27.71-12.43-27.71-27.71s12.43-27.71,27.71-27.71,27.71,12.43,27.71,27.71-12.43,27.71-27.71,27.71m0-64.05c-20.07,0-36.33,16.27-36.33,36.33s16.27,36.33,36.33,36.33,36.33-16.27,36.33-36.33-16.27-36.33-36.33-36.33"/></g><rect class="cls-3" x="907.47" y="618.01" width="1.23" height="26.48"/><rect class="cls-3" x="907.47" y="647.57" width="1.23" height="8.62"/><g class="cls-5"><path class="cls-3" d="m907.56,374.76c-13.14,0-23.84-10.61-24.01-23.71h-8.62c.16,17.88,14.71,32.33,32.63,32.33s32.46-14.45,32.63-32.33h-8.62c-.17,13.1-10.87,23.71-24.01,23.71"/></g><polygon class="cls-3" points="907.67 308.2 868.33 348.3 869.2 349.17 907.69 309.95 946.99 348.51 947.85 347.63 907.67 308.2"/><g class="cls-11"><path class="cls-3" d="m907.56,763.18c-13.14,0-23.84-10.61-24.01-23.71h-8.62c.16,17.88,14.71,32.33,32.63,32.33s32.46-14.45,32.63-32.33h-8.62c-.17,13.1-10.87,23.71-24.01,23.71"/></g><polygon class="cls-3" points="907.67 696.62 868.33 736.72 869.2 737.59 907.69 698.37 946.99 736.93 947.85 736.05 907.67 696.62"/><g class="cls-10"><path class="cls-3" d="m912.4,408.08v8.7c13.24,2.08,23.4,13.56,23.4,27.38,0,15.28-12.43,27.71-27.71,27.71s-27.71-12.43-27.71-27.71c0-13.81,10.16-25.3,23.4-27.38v-8.7c-18.03,2.13-32.02,17.46-32.02,36.07,0,20.07,16.27,36.33,36.33,36.33s36.33-16.27,36.33-36.33c0-18.61-13.99-33.94-32.02-36.07"/></g><rect class="cls-3" x="907.47" y="408.43" width="1.23" height="30.17"/><g class="cls-8"><path class="cls-3" d="m912.4,796.5v8.7c13.24,2.08,23.4,13.56,23.4,27.38,0,15.28-12.43,27.71-27.71,27.71s-27.71-12.43-27.71-27.71c0-13.81,10.16-25.3,23.4-27.38v-8.7c-18.03,2.13-32.02,17.46-32.02,36.07,0,20.07,16.27,36.33,36.33,36.33s36.33-16.27,36.33-36.33c0-18.61-13.99-33.94-32.02-36.07"/></g><rect class="cls-3" x="907.47" y="796.85" width="1.23" height="30.18"/><g class="cls-9"><path class="cls-3" d="m912.4,893.6v8.7c13.24,2.08,23.4,13.56,23.4,27.38,0,15.28-12.43,27.71-27.71,27.71s-27.71-12.43-27.71-27.71c0-13.81,10.16-25.3,23.4-27.38v-8.7c-18.03,2.13-32.02,17.46-32.02,36.07,0,20.07,16.27,36.33,36.33,36.33s36.33-16.27,36.33-36.33c0-18.61-13.99-33.94-32.02-36.07"/></g><rect class="cls-3" x="907.47" y="893.96" width="1.23" height="30.18"/><g class="cls-12"><path class="cls-3" d="m519.02,158.99c-2.81,12.33-13.85,21.55-27.01,21.55-15.28,0-27.71-12.43-27.71-27.71,0-13.38,9.54-24.58,22.17-27.15v-8.76c-17.44,2.67-30.79,17.73-30.79,35.91,0,20.07,16.27,36.33,36.33,36.33,17.96,0,32.88-13.04,35.8-30.18h-8.79Z"/></g><polygon class="cls-3" points="495.21 150.5 526.03 119.67 526.03 150.99 527.27 150.99 527.27 117.29 494.47 117.29 494.47 118.53 525.44 118.53 494.34 149.63 495.21 150.5"/><g class="cls-96"><path class="cls-3" d="m519.02,547.41c-2.81,12.33-13.85,21.55-27.01,21.55-15.28,0-27.71-12.43-27.71-27.71,0-13.38,9.54-24.58,22.17-27.15v-8.76c-17.44,2.67-30.79,17.73-30.79,35.91,0,20.07,16.27,36.33,36.33,36.33,17.96,0,32.88-13.04,35.8-30.18h-8.79Z"/></g><polygon class="cls-3" points="495.21 538.92 526.03 508.09 526.03 539.41 527.27 539.41 527.27 505.71 494.47 505.71 494.47 506.95 525.44 506.95 494.34 538.05 495.21 538.92"/><g class="cls-101"><path class="cls-3" d="m491.74,276.4c-15.28,0-27.71-12.43-27.71-27.71s12.43-27.71,27.71-27.71,27.71,12.43,27.71,27.71-12.43,27.71-27.71,27.71m0-64.05c-20.07,0-36.33,16.27-36.33,36.33s16.27,36.33,36.33,36.33,36.33-16.27,36.33-36.33-16.27-36.33-36.33-36.33"/></g><rect class="cls-3" x="491.12" y="229.6" width="1.23" height="26.48"/><rect class="cls-3" x="491.12" y="259.15" width="1.23" height="8.62"/><g class="cls-95"><path class="cls-3" d="m491.74,664.82c-15.28,0-27.71-12.43-27.71-27.71s12.43-27.71,27.71-27.71,27.71,12.43,27.71,27.71-12.43,27.71-27.71,27.71m0-64.05c-20.07,0-36.33,16.27-36.33,36.33s16.27,36.33,36.33,36.33,36.33-16.27,36.33-36.33-16.27-36.33-36.33-36.33"/></g><rect class="cls-3" x="491.12" y="618.01" width="1.23" height="26.48"/><rect class="cls-3" x="491.12" y="647.57" width="1.23" height="8.62"/><g class="cls-94"><path class="cls-3" d="m491.21,374.76c-13.14,0-23.84-10.61-24.01-23.71h-8.62c.16,17.88,14.71,32.33,32.63,32.33s32.46-14.45,32.63-32.33h-8.62c-.17,13.1-10.87,23.71-24.01,23.71"/></g><polygon class="cls-3" points="491.32 308.2 451.97 348.3 452.85 349.17 491.34 309.95 530.64 348.51 531.5 347.63 491.32 308.2"/><g class="cls-93"><path class="cls-3" d="m491.21,763.18c-13.14,0-23.84-10.61-24.01-23.71h-8.62c.16,17.88,14.71,32.33,32.63,32.33s32.46-14.45,32.63-32.33h-8.62c-.17,13.1-10.87,23.71-24.01,23.71"/></g><polygon class="cls-3" points="491.32 696.62 451.97 736.72 452.85 737.59 491.34 698.37 530.64 736.93 531.5 736.05 491.32 696.62"/><g class="cls-97"><path class="cls-3" d="m496.05,408.08v8.7c13.24,2.08,23.4,13.56,23.4,27.38,0,15.28-12.43,27.71-27.71,27.71s-27.71-12.43-27.71-27.71c0-13.81,10.16-25.3,23.4-27.38v-8.7c-18.03,2.13-32.02,17.46-32.02,36.07,0,20.07,16.27,36.33,36.33,36.33s36.33-16.27,36.33-36.33c0-18.61-13.99-33.94-32.02-36.07"/></g><rect class="cls-3" x="491.12" y="408.43" width="1.23" height="30.17"/><g class="cls-99"><path class="cls-3" d="m496.05,796.5v8.7c13.24,2.08,23.4,13.56,23.4,27.38,0,15.28-12.43,27.71-27.71,27.71s-27.71-12.43-27.71-27.71c0-13.81,10.16-25.3,23.4-27.38v-8.7c-18.03,2.13-32.02,17.46-32.02,36.07,0,20.07,16.27,36.33,36.33,36.33s36.33-16.27,36.33-36.33c0-18.61-13.99-33.94-32.02-36.07"/></g><rect class="cls-3" x="491.12" y="796.85" width="1.23" height="30.18"/><g class="cls-98"><path class="cls-3" d="m496.05,893.6v8.7c13.24,2.08,23.4,13.56,23.4,27.38,0,15.28-12.43,27.71-27.71,27.71s-27.71-12.43-27.71-27.71c0-13.81,10.16-25.3,23.4-27.38v-8.7c-18.03,2.13-32.02,17.46-32.02,36.07,0,20.07,16.27,36.33,36.33,36.33s36.33-16.27,36.33-36.33c0-18.61-13.99-33.94-32.02-36.07"/></g><rect class="cls-3" x="491.12" y="893.96" width="1.23" height="30.18"/><g class="cls-102"><path class="cls-3" d="m1351.72,158.99c-2.81,12.33-13.85,21.55-27.01,21.55-15.28,0-27.71-12.43-27.71-27.71,0-13.38,9.54-24.58,22.17-27.15v-8.76c-17.44,2.67-30.79,17.73-30.79,35.91,0,20.07,16.27,36.33,36.33,36.33,17.96,0,32.88-13.04,35.8-30.18h-8.79Z"/></g><polygon class="cls-3" points="1327.91 150.5 1358.74 119.67 1358.74 150.99 1359.97 150.99 1359.97 117.29 1327.17 117.29 1327.17 118.53 1358.14 118.53 1327.04 149.63 1327.91 150.5"/><g class="cls-100"><path class="cls-3" d="m1351.72,547.41c-2.81,12.33-13.85,21.55-27.01,21.55-15.28,0-27.71-12.43-27.71-27.71,0-13.38,9.54-24.58,22.17-27.15v-8.76c-17.44,2.67-30.79,17.73-30.79,35.91,0,20.07,16.27,36.33,36.33,36.33,17.96,0,32.88-13.04,35.8-30.18h-8.79Z"/></g><polygon class="cls-3" points="1327.91 538.92 1358.74 508.09 1358.74 539.41 1359.97 539.41 1359.97 505.71 1327.17 505.71 1327.17 506.95 1358.14 506.95 1327.04 538.05 1327.91 538.92"/><g class="cls-15"><path class="cls-3" d="m1324.44,276.4c-15.28,0-27.71-12.43-27.71-27.71s12.43-27.71,27.71-27.71,27.71,12.43,27.71,27.71-12.43,27.71-27.71,27.71m0-64.05c-20.07,0-36.33,16.27-36.33,36.33s16.27,36.33,36.33,36.33,36.33-16.27,36.33-36.33-16.27-36.33-36.33-36.33"/></g><rect class="cls-3" x="1323.82" y="229.6" width="1.23" height="26.48"/><rect class="cls-3" x="1323.82" y="259.15" width="1.23" height="8.62"/><g class="cls-16"><path class="cls-3" d="m1324.44,664.82c-15.28,0-27.71-12.43-27.71-27.71s12.43-27.71,27.71-27.71,27.71,12.43,27.71,27.71-12.43,27.71-27.71,27.71m0-64.05c-20.07,0-36.33,16.27-36.33,36.33s16.27,36.33,36.33,36.33,36.33-16.27,36.33-36.33-16.27-36.33-36.33-36.33"/></g><rect class="cls-3" x="1323.82" y="618.01" width="1.23" height="26.48"/><rect class="cls-3" x="1323.82" y="647.57" width="1.23" height="8.62"/><g class="cls-19"><path class="cls-3" d="m1323.91,374.76c-13.14,0-23.84-10.61-24.01-23.71h-8.62c.16,17.88,14.71,32.33,32.63,32.33s32.46-14.45,32.63-32.33h-8.62c-.17,13.1-10.87,23.71-24.01,23.71"/></g><polygon class="cls-3" points="1324.02 308.2 1284.68 348.3 1285.56 349.17 1324.04 309.95 1363.34 348.51 1364.2 347.63 1324.02 308.2"/><g class="cls-18"><path class="cls-3" d="m1323.91,763.18c-13.14,0-23.84-10.61-24.01-23.71h-8.62c.16,17.88,14.71,32.33,32.63,32.33s32.46-14.45,32.63-32.33h-8.62c-.17,13.1-10.87,23.71-24.01,23.71"/></g><polygon class="cls-3" points="1324.02 696.62 1284.68 736.72 1285.56 737.59 1324.04 698.37 1363.34 736.93 1364.2 736.05 1324.02 696.62"/><g class="cls-17"><path class="cls-3" d="m1328.75,408.08v8.7c13.24,2.08,23.4,13.56,23.4,27.38,0,15.28-12.43,27.71-27.71,27.71s-27.71-12.43-27.71-27.71c0-13.81,10.16-25.3,23.4-27.38v-8.7c-18.03,2.13-32.02,17.46-32.02,36.07,0,20.07,16.27,36.33,36.33,36.33s36.33-16.27,36.33-36.33c0-18.61-13.99-33.94-32.02-36.07"/></g><rect class="cls-3" x="1323.82" y="408.43" width="1.23" height="30.17"/><g class="cls-20"><path class="cls-3" d="m1328.75,796.5v8.7c13.24,2.08,23.4,13.56,23.4,27.38,0,15.28-12.43,27.71-27.71,27.71s-27.71-12.43-27.71-27.71c0-13.81,10.16-25.3,23.4-27.38v-8.7c-18.03,2.13-32.02,17.46-32.02,36.07,0,20.07,16.27,36.33,36.33,36.33s36.33-16.27,36.33-36.33c0-18.61-13.99-33.94-32.02-36.07"/></g><rect class="cls-3" x="1323.82" y="796.85" width="1.23" height="30.18"/><g class="cls-44"><path class="cls-3" d="m1328.75,893.6v8.7c13.24,2.08,23.4,13.56,23.4,27.38,0,15.28-12.43,27.71-27.71,27.71s-27.71-12.43-27.71-27.71c0-13.81,10.16-25.3,23.4-27.38v-8.7c-18.03,2.13-32.02,17.46-32.02,36.07,0,20.07,16.27,36.33,36.33,36.33s36.33-16.27,36.33-36.33c0-18.61-13.99-33.94-32.02-36.07"/></g><rect class="cls-3" x="1323.82" y="893.96" width="1.23" height="30.18"/><g class="cls-42"><path class="cls-3" d="m1768.07,158.99c-2.81,12.33-13.85,21.55-27.01,21.55-15.28,0-27.71-12.43-27.71-27.71,0-13.38,9.54-24.58,22.17-27.15v-8.76c-17.44,2.67-30.79,17.73-30.79,35.91,0,20.07,16.27,36.33,36.33,36.33,17.96,0,32.88-13.04,35.8-30.18h-8.79Z"/></g><polygon class="cls-3" points="1744.26 150.5 1775.09 119.67 1775.09 150.99 1776.32 150.99 1776.32 117.29 1743.52 117.29 1743.52 118.53 1774.49 118.53 1743.39 149.63 1744.26 150.5"/><g class="cls-43"><path class="cls-3" d="m1768.07,547.41c-2.81,12.33-13.85,21.55-27.01,21.55-15.28,0-27.71-12.43-27.71-27.71,0-13.38,9.54-24.58,22.17-27.15v-8.76c-17.44,2.67-30.79,17.73-30.79,35.91,0,20.07,16.27,36.33,36.33,36.33,17.96,0,32.88-13.04,35.8-30.18h-8.79Z"/></g><polygon class="cls-3" points="1744.26 538.92 1775.09 508.09 1775.09 539.41 1776.32 539.41 1776.32 505.71 1743.52 505.71 1743.52 506.95 1774.49 506.95 1743.39 538.05 1744.26 538.92"/><g class="cls-45"><path class="cls-3" d="m1740.79,276.4c-15.28,0-27.71-12.43-27.71-27.71s12.43-27.71,27.71-27.71,27.71,12.43,27.71,27.71-12.43,27.71-27.71,27.71m0-64.05c-20.07,0-36.33,16.27-36.33,36.33s16.27,36.33,36.33,36.33,36.33-16.27,36.33-36.33-16.27-36.33-36.33-36.33"/></g><rect class="cls-3" x="1740.18" y="229.6" width="1.23" height="26.48"/><rect class="cls-3" x="1740.18" y="259.15" width="1.23" height="8.62"/><g class="cls-53"><path class="cls-3" d="m1740.79,664.82c-15.28,0-27.71-12.43-27.71-27.71s12.43-27.71,27.71-27.71,27.71,12.43,27.71,27.71-12.43,27.71-27.71,27.71m0-64.05c-20.07,0-36.33,16.27-36.33,36.33s16.27,36.33,36.33,36.33,36.33-16.27,36.33-36.33-16.27-36.33-36.33-36.33"/></g><rect class="cls-3" x="1740.18" y="618.01" width="1.23" height="26.48"/><rect class="cls-3" x="1740.18" y="647.57" width="1.23" height="8.62"/><g class="cls-55"><path class="cls-3" d="m1740.26,374.76c-13.14,0-23.84-10.61-24.01-23.71h-8.62c.16,17.88,14.71,32.33,32.63,32.33s32.46-14.45,32.63-32.33h-8.62c-.17,13.1-10.87,23.71-24.01,23.71"/></g><polygon class="cls-3" points="1740.37 308.2 1701.03 348.3 1701.91 349.17 1740.39 309.95 1779.69 348.51 1780.55 347.63 1740.37 308.2"/><g class="cls-52"><path class="cls-3" d="m1740.26,763.18c-13.14,0-23.84-10.61-24.01-23.71h-8.62c.16,17.88,14.71,32.33,32.63,32.33s32.46-14.45,32.63-32.33h-8.62c-.17,13.1-10.87,23.71-24.01,23.71"/></g><polygon class="cls-3" points="1740.37 696.62 1701.03 736.72 1701.91 737.59 1740.39 698.37 1779.69 736.93 1780.55 736.05 1740.37 696.62"/><g class="cls-51"><path class="cls-3" d="m1745.1,408.08v8.7c13.24,2.08,23.4,13.56,23.4,27.38,0,15.28-12.43,27.71-27.71,27.71s-27.71-12.43-27.71-27.71c0-13.81,10.16-25.3,23.4-27.38v-8.7c-18.03,2.13-32.02,17.46-32.02,36.07,0,20.07,16.27,36.33,36.33,36.33s36.33-16.27,36.33-36.33c0-18.61-13.99-33.94-32.02-36.07"/></g><rect class="cls-3" x="1740.17" y="408.43" width="1.23" height="30.17"/><g class="cls-46"><path class="cls-3" d="m1745.1,796.5v8.7c13.24,2.08,23.4,13.56,23.4,27.38,0,15.28-12.43,27.71-27.71,27.71s-27.71-12.43-27.71-27.71c0-13.81,10.16-25.3,23.4-27.38v-8.7c-18.03,2.13-32.02,17.46-32.02,36.07,0,20.07,16.27,36.33,36.33,36.33s36.33-16.27,36.33-36.33c0-18.61-13.99-33.94-32.02-36.07"/></g><rect class="cls-3" x="1740.17" y="796.85" width="1.23" height="30.18"/><g class="cls-47"><path class="cls-3" d="m1745.1,893.6v8.7c13.24,2.08,23.4,13.56,23.4,27.38,0,15.28-12.43,27.71-27.71,27.71s-27.71-12.43-27.71-27.71c0-13.81,10.16-25.3,23.4-27.38v-8.7c-18.03,2.13-32.02,17.46-32.02,36.07,0,20.07,16.27,36.33,36.33,36.33s36.33-16.27,36.33-36.33c0-18.61-13.99-33.94-32.02-36.07"/></g><rect class="cls-3" x="1740.17" y="893.96" width="1.23" height="30.18"/><g class="cls-48"><path class="cls-3" d="m699.39,180.54c-13.14,0-23.84-10.61-24.01-23.71h-8.62c.16,17.88,14.71,32.33,32.63,32.33s32.46-14.45,32.63-32.33h-8.62c-.17,13.1-10.87,23.71-24.01,23.71"/></g><polygon class="cls-3" points="699.49 113.99 660.15 154.09 661.03 154.96 699.51 115.73 738.81 154.3 739.68 153.42 699.49 113.99"/><g class="cls-49"><path class="cls-3" d="m699.39,568.97c-13.14,0-23.84-10.61-24.01-23.71h-8.62c.16,17.88,14.71,32.33,32.63,32.33s32.46-14.45,32.63-32.33h-8.62c-.17,13.1-10.87,23.71-24.01,23.71"/></g><polygon class="cls-3" points="699.49 502.41 660.15 542.51 661.03 543.38 699.51 504.16 738.81 542.72 739.68 541.84 699.49 502.41"/><g class="cls-54"><path class="cls-3" d="m704.22,213.87v8.7c13.24,2.08,23.4,13.56,23.4,27.38,0,15.28-12.43,27.71-27.71,27.71s-27.71-12.43-27.71-27.71c0-13.81,10.16-25.3,23.4-27.38v-8.7c-18.03,2.13-32.02,17.46-32.02,36.07,0,20.07,16.27,36.33,36.33,36.33s36.33-16.27,36.33-36.33c0-18.61-13.99-33.94-32.02-36.07"/></g><rect class="cls-3" x="699.3" y="214.22" width="1.23" height="30.17"/><g class="cls-50"><path class="cls-3" d="m704.22,602.29v8.7c13.24,2.08,23.4,13.56,23.4,27.38,0,15.28-12.43,27.71-27.71,27.71s-27.71-12.43-27.71-27.71c0-13.81,10.16-25.3,23.4-27.38v-8.7c-18.03,2.13-32.02,17.46-32.02,36.07,0,20.07,16.27,36.33,36.33,36.33s36.33-16.27,36.33-36.33c0-18.61-13.99-33.94-32.02-36.07"/></g><rect class="cls-3" x="699.3" y="602.64" width="1.23" height="30.17"/><g class="cls-23"><path class="cls-3" d="m727.19,353.2c-2.81,12.33-13.85,21.55-27.01,21.55-15.28,0-27.71-12.43-27.71-27.71,0-13.38,9.54-24.58,22.17-27.15v-8.76c-17.44,2.67-30.79,17.73-30.79,35.91,0,20.07,16.27,36.33,36.33,36.33,17.96,0,32.88-13.04,35.8-30.18h-8.79Z"/></g><polygon class="cls-3" points="703.39 344.71 734.21 313.88 734.21 345.2 735.44 345.2 735.44 311.5 702.64 311.5 702.64 312.74 733.61 312.74 702.51 343.84 703.39 344.71"/><g class="cls-25"><path class="cls-3" d="m727.19,741.62c-2.81,12.33-13.85,21.55-27.01,21.55-15.28,0-27.71-12.43-27.71-27.71,0-13.38,9.54-24.58,22.17-27.15v-8.76c-17.44,2.67-30.79,17.73-30.79,35.91,0,20.07,16.27,36.33,36.33,36.33,17.96,0,32.88-13.04,35.8-30.18h-8.79Z"/></g><polygon class="cls-3" points="703.39 733.13 734.21 702.3 734.21 733.62 735.44 733.62 735.44 699.92 702.64 699.92 702.64 701.16 733.61 701.16 702.51 732.26 703.39 733.13"/><g class="cls-24"><path class="cls-3" d="m699.91,470.61c-15.28,0-27.71-12.43-27.71-27.71s12.43-27.71,27.71-27.71,27.71,12.43,27.71,27.71-12.43,27.71-27.71,27.71m0-64.05c-20.07,0-36.33,16.27-36.33,36.33s16.27,36.33,36.33,36.33,36.33-16.27,36.33-36.33-16.27-36.33-36.33-36.33"/></g><rect class="cls-3" x="699.3" y="423.8" width="1.23" height="26.48"/><rect class="cls-3" x="699.3" y="453.36" width="1.23" height="8.62"/><g class="cls-27"><path class="cls-3" d="m699.91,859.03c-15.28,0-27.71-12.43-27.71-27.71s12.43-27.71,27.71-27.71,27.71,12.43,27.71,27.71-12.43,27.71-27.71,27.71m0-64.04c-20.07,0-36.33,16.27-36.33,36.33s16.27,36.33,36.33,36.33,36.33-16.27,36.33-36.33-16.27-36.33-36.33-36.33"/></g><rect class="cls-3" x="699.3" y="812.23" width="1.23" height="26.48"/><rect class="cls-3" x="699.3" y="841.78" width="1.23" height="8.62"/><g class="cls-21"><path class="cls-3" d="m699.91,956.13c-15.28,0-27.71-12.43-27.71-27.71s12.43-27.71,27.71-27.71,27.71,12.43,27.71,27.71-12.43,27.71-27.71,27.71m0-64.04c-20.07,0-36.33,16.27-36.33,36.33s16.27,36.33,36.33,36.33,36.33-16.27,36.33-36.33-16.27-36.33-36.33-36.33"/></g><rect class="cls-3" x="699.3" y="909.33" width="1.23" height="26.48"/><rect class="cls-3" x="699.3" y="938.89" width="1.23" height="8.62"/><g class="cls-22"><path class="cls-3" d="m283.03,180.54c-13.14,0-23.84-10.61-24.01-23.71h-8.62c.16,17.88,14.71,32.33,32.63,32.33s32.46-14.45,32.63-32.33h-8.62c-.17,13.1-10.87,23.71-24.01,23.71"/></g><polygon class="cls-3" points="283.14 113.99 243.8 154.09 244.68 154.96 283.16 115.73 322.46 154.3 323.32 153.42 283.14 113.99"/><g class="cls-28"><path class="cls-3" d="m283.03,568.97c-13.14,0-23.84-10.61-24.01-23.71h-8.62c.16,17.88,14.71,32.33,32.63,32.33s32.46-14.45,32.63-32.33h-8.62c-.17,13.1-10.87,23.71-24.01,23.71"/></g><polygon class="cls-3" points="283.14 502.41 243.8 542.51 244.68 543.38 283.16 504.16 322.46 542.72 323.32 541.84 283.14 502.41"/><g class="cls-26"><path class="cls-3" d="m287.87,213.87v8.7c13.24,2.08,23.4,13.56,23.4,27.38,0,15.28-12.43,27.71-27.71,27.71s-27.71-12.43-27.71-27.71c0-13.81,10.16-25.3,23.4-27.38v-8.7c-18.03,2.13-32.02,17.46-32.02,36.07,0,20.07,16.27,36.33,36.33,36.33s36.33-16.27,36.33-36.33c0-18.61-13.99-33.94-32.02-36.07"/></g><rect class="cls-3" x="282.95" y="214.22" width="1.23" height="30.17"/><g class="cls-29"><path class="cls-3" d="m287.87,602.29v8.7c13.24,2.08,23.4,13.56,23.4,27.38,0,15.28-12.43,27.71-27.71,27.71s-27.71-12.43-27.71-27.71c0-13.81,10.16-25.3,23.4-27.38v-8.7c-18.03,2.13-32.02,17.46-32.02,36.07,0,20.07,16.27,36.33,36.33,36.33s36.33-16.27,36.33-36.33c0-18.61-13.99-33.94-32.02-36.07"/></g><rect class="cls-3" x="282.95" y="602.64" width="1.23" height="30.17"/><g class="cls-30"><path class="cls-3" d="m310.84,353.2c-2.81,12.33-13.85,21.55-27.01,21.55-15.28,0-27.71-12.43-27.71-27.71,0-13.38,9.54-24.58,22.17-27.15v-8.76c-17.44,2.67-30.79,17.73-30.79,35.91,0,20.07,16.27,36.33,36.33,36.33,17.96,0,32.88-13.04,35.8-30.18h-8.79Z"/></g><polygon class="cls-3" points="287.03 344.71 317.86 313.88 317.86 345.2 319.09 345.2 319.09 311.5 286.29 311.5 286.29 312.74 317.26 312.74 286.16 343.84 287.03 344.71"/><g class="cls-67"><path class="cls-3" d="m310.84,741.62c-2.81,12.33-13.85,21.55-27.01,21.55-15.28,0-27.71-12.43-27.71-27.71,0-13.38,9.54-24.58,22.17-27.15v-8.76c-17.44,2.67-30.79,17.73-30.79,35.91,0,20.07,16.27,36.33,36.33,36.33,17.96,0,32.88-13.04,35.8-30.18h-8.79Z"/></g><polygon class="cls-3" points="287.03 733.13 317.86 702.3 317.86 733.62 319.09 733.62 319.09 699.92 286.29 699.92 286.29 701.16 317.26 701.16 286.16 732.26 287.03 733.13"/><g class="cls-68"><path class="cls-3" d="m283.56,470.61c-15.28,0-27.71-12.43-27.71-27.71s12.43-27.71,27.71-27.71,27.71,12.43,27.71,27.71-12.43,27.71-27.71,27.71m0-64.05c-20.07,0-36.33,16.27-36.33,36.33s16.27,36.33,36.33,36.33,36.33-16.27,36.33-36.33-16.27-36.33-36.33-36.33"/></g><rect class="cls-3" x="282.95" y="423.8" width="1.23" height="26.48"/><rect class="cls-3" x="282.95" y="453.36" width="1.23" height="8.62"/><g class="cls-69"><path class="cls-3" d="m283.56,859.03c-15.28,0-27.71-12.43-27.71-27.71s12.43-27.71,27.71-27.71,27.71,12.43,27.71,27.71-12.43,27.71-27.71,27.71m0-64.04c-20.07,0-36.33,16.27-36.33,36.33s16.27,36.33,36.33,36.33,36.33-16.27,36.33-36.33-16.27-36.33-36.33-36.33"/></g><rect class="cls-3" x="282.95" y="812.23" width="1.23" height="26.48"/><rect class="cls-3" x="282.95" y="841.78" width="1.23" height="8.62"/><g class="cls-65"><path class="cls-3" d="m283.56,956.13c-15.28,0-27.71-12.43-27.71-27.71s12.43-27.71,27.71-27.71,27.71,12.43,27.71,27.71-12.43,27.71-27.71,27.71m0-64.04c-20.07,0-36.33,16.27-36.33,36.33s16.27,36.33,36.33,36.33,36.33-16.27,36.33-36.33-16.27-36.33-36.33-36.33"/></g><rect class="cls-3" x="282.95" y="909.33" width="1.23" height="26.48"/><rect class="cls-3" x="282.95" y="938.89" width="1.23" height="8.62"/><g class="cls-66"><path class="cls-3" d="m1115.74,180.54c-13.14,0-23.84-10.61-24.01-23.71h-8.62c.16,17.88,14.71,32.33,32.63,32.33s32.46-14.45,32.63-32.33h-8.62c-.17,13.1-10.87,23.71-24.01,23.71"/></g><polygon class="cls-3" points="1115.84 113.99 1076.5 154.09 1077.38 154.96 1115.86 115.73 1155.16 154.3 1156.03 153.42 1115.84 113.99"/><g class="cls-70"><path class="cls-3" d="m1115.74,568.97c-13.14,0-23.84-10.61-24.01-23.71h-8.62c.16,17.88,14.71,32.33,32.63,32.33s32.46-14.45,32.63-32.33h-8.62c-.17,13.1-10.87,23.71-24.01,23.71"/></g><polygon class="cls-3" points="1115.84 502.41 1076.5 542.51 1077.38 543.38 1115.86 504.16 1155.16 542.72 1156.03 541.84 1115.84 502.41"/><g class="cls-71"><path class="cls-3" d="m1120.57,213.87v8.7c13.24,2.08,23.4,13.56,23.4,27.38,0,15.28-12.43,27.71-27.71,27.71s-27.71-12.43-27.71-27.71c0-13.81,10.16-25.3,23.4-27.38v-8.7c-18.03,2.13-32.02,17.46-32.02,36.07,0,20.07,16.27,36.33,36.33,36.33s36.33-16.27,36.33-36.33c0-18.61-13.99-33.94-32.02-36.07"/></g><rect class="cls-3" x="1115.65" y="214.22" width="1.23" height="30.17"/><g class="cls-72"><path class="cls-3" d="m1120.57,602.29v8.7c13.24,2.08,23.4,13.56,23.4,27.38,0,15.28-12.43,27.71-27.71,27.71s-27.71-12.43-27.71-27.71c0-13.81,10.16-25.3,23.4-27.38v-8.7c-18.03,2.13-32.02,17.46-32.02,36.07,0,20.07,16.27,36.33,36.33,36.33s36.33-16.27,36.33-36.33c0-18.61-13.99-33.94-32.02-36.07"/></g><rect class="cls-3" x="1115.65" y="602.64" width="1.23" height="30.17"/><g class="cls-73"><path class="cls-3" d="m1143.54,353.2c-2.81,12.33-13.85,21.55-27.01,21.55-15.28,0-27.71-12.43-27.71-27.71,0-13.38,9.54-24.58,22.17-27.15v-8.76c-17.44,2.67-30.79,17.73-30.79,35.91,0,20.07,16.27,36.33,36.33,36.33,17.96,0,32.88-13.04,35.8-30.18h-8.79Z"/></g><polygon class="cls-3" points="1119.74 344.71 1150.56 313.88 1150.56 345.2 1151.79 345.2 1151.79 311.5 1118.99 311.5 1118.99 312.74 1149.97 312.74 1118.86 343.84 1119.74 344.71"/><g class="cls-81"><path class="cls-3" d="m1143.54,741.62c-2.81,12.33-13.85,21.55-27.01,21.55-15.28,0-27.71-12.43-27.71-27.71,0-13.38,9.54-24.58,22.17-27.15v-8.76c-17.44,2.67-30.79,17.73-30.79,35.91,0,20.07,16.27,36.33,36.33,36.33,17.96,0,32.88-13.04,35.8-30.18h-8.79Z"/></g><polygon class="cls-3" points="1119.74 733.13 1150.56 702.3 1150.56 733.62 1151.79 733.62 1151.79 699.92 1118.99 699.92 1118.99 701.16 1149.97 701.16 1118.86 732.26 1119.74 733.13"/><g class="cls-13"><path class="cls-3" d="m1116.26,470.61c-15.28,0-27.71-12.43-27.71-27.71s12.43-27.71,27.71-27.71,27.71,12.43,27.71,27.71-12.43,27.71-27.71,27.71m0-64.05c-20.07,0-36.33,16.27-36.33,36.33s16.27,36.33,36.33,36.33,36.33-16.27,36.33-36.33-16.27-36.33-36.33-36.33"/></g><rect class="cls-3" x="1115.65" y="423.8" width="1.23" height="26.48"/><rect class="cls-3" x="1115.65" y="453.36" width="1.23" height="8.62"/><g class="cls-75"><path class="cls-3" d="m1116.26,859.03c-15.28,0-27.71-12.43-27.71-27.71s12.43-27.71,27.71-27.71,27.71,12.43,27.71,27.71-12.43,27.71-27.71,27.71m0-64.04c-20.07,0-36.33,16.27-36.33,36.33s16.27,36.33,36.33,36.33,36.33-16.27,36.33-36.33-16.27-36.33-36.33-36.33"/></g><rect class="cls-3" x="1115.65" y="812.23" width="1.23" height="26.48"/><rect class="cls-3" x="1115.65" y="841.78" width="1.23" height="8.62"/><g class="cls-77"><path class="cls-3" d="m1116.26,956.13c-15.28,0-27.71-12.43-27.71-27.71s12.43-27.71,27.71-27.71,27.71,12.43,27.71,27.71-12.43,27.71-27.71,27.71m0-64.04c-20.07,0-36.33,16.27-36.33,36.33s16.27,36.33,36.33,36.33,36.33-16.27,36.33-36.33-16.27-36.33-36.33-36.33"/></g><rect class="cls-3" x="1115.65" y="909.33" width="1.23" height="26.48"/><rect class="cls-3" x="1115.65" y="938.89" width="1.23" height="8.62"/><g class="cls-83"><path class="cls-3" d="m1532.09,180.54c-13.14,0-23.84-10.61-24.01-23.71h-8.62c.16,17.88,14.71,32.33,32.63,32.33s32.46-14.45,32.63-32.33h-8.62c-.17,13.1-10.87,23.71-24.01,23.71"/></g><polygon class="cls-3" points="1532.2 113.99 1492.85 154.09 1493.73 154.96 1532.21 115.73 1571.52 154.3 1572.38 153.42 1532.2 113.99"/><g class="cls-76"><path class="cls-3" d="m1532.09,568.97c-13.14,0-23.84-10.61-24.01-23.71h-8.62c.16,17.88,14.71,32.33,32.63,32.33s32.46-14.45,32.63-32.33h-8.62c-.17,13.1-10.87,23.71-24.01,23.71"/></g><polygon class="cls-3" points="1532.2 502.41 1492.85 542.51 1493.73 543.38 1532.21 504.16 1571.52 542.72 1572.38 541.84 1532.2 502.41"/><g class="cls-82"><path class="cls-3" d="m1536.93,213.87v8.7c13.24,2.08,23.4,13.56,23.4,27.38,0,15.28-12.43,27.71-27.71,27.71s-27.71-12.43-27.71-27.71c0-13.81,10.16-25.3,23.4-27.38v-8.7c-18.03,2.13-32.02,17.46-32.02,36.07,0,20.07,16.27,36.33,36.33,36.33s36.33-16.27,36.33-36.33c0-18.61-13.99-33.94-32.02-36.07"/></g><rect class="cls-3" x="1532" y="214.22" width="1.23" height="30.17"/><g class="cls-84"><path class="cls-3" d="m1536.93,602.29v8.7c13.24,2.08,23.4,13.56,23.4,27.38,0,15.28-12.43,27.71-27.71,27.71s-27.71-12.43-27.71-27.71c0-13.81,10.16-25.3,23.4-27.38v-8.7c-18.03,2.13-32.02,17.46-32.02,36.07,0,20.07,16.27,36.33,36.33,36.33s36.33-16.27,36.33-36.33c0-18.61-13.99-33.94-32.02-36.07"/></g><rect class="cls-3" x="1532" y="602.64" width="1.23" height="30.17"/><g class="cls-79"><path class="cls-3" d="m1559.89,353.2c-2.81,12.33-13.85,21.55-27.01,21.55-15.28,0-27.71-12.43-27.71-27.71,0-13.38,9.54-24.58,22.17-27.15v-8.76c-17.44,2.67-30.79,17.73-30.79,35.91,0,20.07,16.27,36.33,36.33,36.33,17.96,0,32.88-13.04,35.8-30.18h-8.79Z"/></g><polygon class="cls-3" points="1536.09 344.71 1566.91 313.88 1566.91 345.2 1568.14 345.2 1568.14 311.5 1535.34 311.5 1535.34 312.74 1566.32 312.74 1535.22 343.84 1536.09 344.71"/><g class="cls-78"><path class="cls-3" d="m1559.89,741.62c-2.81,12.33-13.85,21.55-27.01,21.55-15.28,0-27.71-12.43-27.71-27.71,0-13.38,9.54-24.58,22.17-27.15v-8.76c-17.44,2.67-30.79,17.73-30.79,35.91,0,20.07,16.27,36.33,36.33,36.33,17.96,0,32.88-13.04,35.8-30.18h-8.79Z"/></g><polygon class="cls-3" points="1536.09 733.13 1566.91 702.3 1566.91 733.62 1568.14 733.62 1568.14 699.92 1535.34 699.92 1535.34 701.16 1566.32 701.16 1535.22 732.26 1536.09 733.13"/><g class="cls-14"><path class="cls-3" d="m1532.62,470.61c-15.28,0-27.71-12.43-27.71-27.71s12.43-27.71,27.71-27.71,27.71,12.43,27.71,27.71-12.43,27.71-27.71,27.71m0-64.05c-20.07,0-36.33,16.27-36.33,36.33s16.27,36.33,36.33,36.33,36.33-16.27,36.33-36.33-16.27-36.33-36.33-36.33"/></g><rect class="cls-3" x="1532" y="423.8" width="1.23" height="26.48"/><rect class="cls-3" x="1532" y="453.36" width="1.23" height="8.62"/><g class="cls-85"><path class="cls-3" d="m1532.62,859.03c-15.28,0-27.71-12.43-27.71-27.71s12.43-27.71,27.71-27.71,27.71,12.43,27.71,27.71-12.43,27.71-27.71,27.71m0-64.04c-20.07,0-36.33,16.27-36.33,36.33s16.27,36.33,36.33,36.33,36.33-16.27,36.33-36.33-16.27-36.33-36.33-36.33"/></g><rect class="cls-3" x="1532" y="812.23" width="1.23" height="26.48"/><rect class="cls-3" x="1532" y="841.78" width="1.23" height="8.62"/><g class="cls-89"><path class="cls-3" d="m1532.62,956.13c-15.28,0-27.71-12.43-27.71-27.71s12.43-27.71,27.71-27.71,27.71,12.43,27.71,27.71-12.43,27.71-27.71,27.71m0-64.04c-20.07,0-36.33,16.27-36.33,36.33s16.27,36.33,36.33,36.33,36.33-16.27,36.33-36.33-16.27-36.33-36.33-36.33"/></g><rect class="cls-3" x="1532" y="909.33" width="1.23" height="26.48"/><rect class="cls-3" x="1532" y="938.89" width="1.23" height="8.62"/><g class="cls-87"><path class="cls-3" d="m808.31,116.76v8.7c13.24,2.08,23.4,13.56,23.4,27.38,0,15.28-12.43,27.71-27.71,27.71s-27.71-12.43-27.71-27.71c0-13.81,10.16-25.3,23.4-27.38v-8.7c-18.03,2.13-32.02,17.46-32.02,36.07,0,20.07,16.27,36.33,36.33,36.33s36.33-16.27,36.33-36.33c0-18.61-13.99-33.94-32.02-36.07"/></g><rect class="cls-3" x="803.39" y="117.12" width="1.23" height="30.17"/><g class="cls-80"><path class="cls-3" d="m808.31,505.18v8.7c13.24,2.08,23.4,13.56,23.4,27.38,0,15.28-12.43,27.71-27.71,27.71s-27.71-12.43-27.71-27.71c0-13.81,10.16-25.3,23.4-27.38v-8.7c-18.03,2.13-32.02,17.46-32.02,36.07,0,20.07,16.27,36.33,36.33,36.33s36.33-16.27,36.33-36.33c0-18.61-13.99-33.94-32.02-36.07"/></g><rect class="cls-3" x="803.39" y="505.54" width="1.23" height="30.17"/><g class="cls-91"><path class="cls-3" d="m831.28,256.1c-2.81,12.33-13.85,21.55-27.01,21.55-15.28,0-27.71-12.43-27.71-27.71,0-13.38,9.54-24.58,22.17-27.15v-8.76c-17.44,2.67-30.79,17.73-30.79,35.91,0,20.07,16.27,36.33,36.33,36.33,17.96,0,32.88-13.04,35.8-30.18h-8.79Z"/></g><polygon class="cls-3" points="807.47 247.6 838.3 216.78 838.3 248.09 839.53 248.09 839.53 214.4 806.73 214.4 806.73 215.63 837.7 215.63 806.6 246.73 807.47 247.6"/><g class="cls-86"><path class="cls-3" d="m831.28,644.52c-2.81,12.33-13.85,21.55-27.01,21.55-15.28,0-27.71-12.43-27.71-27.71,0-13.38,9.54-24.58,22.17-27.15v-8.76c-17.44,2.67-30.79,17.73-30.79,35.91,0,20.07,16.27,36.33,36.33,36.33,17.96,0,32.88-13.04,35.8-30.18h-8.79Z"/></g><polygon class="cls-3" points="807.47 636.02 838.3 605.2 838.3 636.51 839.53 636.51 839.53 602.82 806.73 602.82 806.73 604.05 837.7 604.05 806.6 635.15 807.47 636.02"/><g class="cls-92"><path class="cls-3" d="m804,373.5c-15.28,0-27.71-12.43-27.71-27.71s12.43-27.71,27.71-27.71,27.71,12.43,27.71,27.71-12.43,27.71-27.71,27.71m0-64.05c-20.07,0-36.33,16.27-36.33,36.33s16.27,36.33,36.33,36.33,36.33-16.27,36.33-36.33-16.27-36.33-36.33-36.33"/></g><rect class="cls-3" x="803.39" y="326.7" width="1.23" height="26.48"/><rect class="cls-3" x="803.39" y="356.26" width="1.23" height="8.62"/><g class="cls-90"><path class="cls-3" d="m804,761.92c-15.28,0-27.71-12.43-27.71-27.71s12.43-27.71,27.71-27.71,27.71,12.43,27.71,27.71-12.43,27.71-27.71,27.71m0-64.05c-20.07,0-36.33,16.27-36.33,36.33s16.27,36.33,36.33,36.33,36.33-16.27,36.33-36.33-16.27-36.33-36.33-36.33"/></g><rect class="cls-3" x="803.39" y="715.12" width="1.23" height="26.48"/><rect class="cls-3" x="803.39" y="744.68" width="1.23" height="8.62"/><g class="cls-88"><path class="cls-3" d="m803.47,471.86c-13.14,0-23.84-10.61-24.01-23.71h-8.62c.16,17.88,14.71,32.33,32.63,32.33s32.46-14.45,32.63-32.33h-8.62c-.17,13.1-10.87,23.71-24.01,23.71"/></g><polygon class="cls-3" points="803.58 405.31 764.24 445.41 765.12 446.27 803.6 407.05 842.9 445.61 843.76 444.73 803.58 405.31"/><g class="cls-74"><path class="cls-3" d="m803.47,860.28c-13.14,0-23.84-10.61-24.01-23.71h-8.62c.16,17.88,14.71,32.33,32.63,32.33s32.46-14.45,32.63-32.33h-8.62c-.17,13.1-10.87,23.71-24.01,23.71"/></g><polygon class="cls-3" points="803.58 793.73 764.24 833.83 765.12 834.69 803.6 795.47 842.9 834.03 843.76 833.15 803.58 793.73"/><g class="cls-37"><path class="cls-3" d="m803.47,957.39c-13.14,0-23.84-10.61-24.01-23.71h-8.62c.16,17.88,14.71,32.33,32.63,32.33s32.46-14.45,32.63-32.33h-8.62c-.17,13.1-10.87,23.71-24.01,23.71"/></g><polygon class="cls-3" points="803.58 890.83 764.24 930.93 765.12 931.8 803.6 892.58 842.9 931.14 843.76 930.26 803.58 890.83"/><g class="cls-34"><path class="cls-3" d="m391.96,116.76v8.7c13.24,2.08,23.4,13.56,23.4,27.38,0,15.28-12.43,27.71-27.71,27.71s-27.71-12.43-27.71-27.71c0-13.81,10.16-25.3,23.4-27.38v-8.7c-18.03,2.13-32.02,17.46-32.02,36.07,0,20.07,16.27,36.33,36.33,36.33s36.33-16.27,36.33-36.33c0-18.61-13.99-33.94-32.02-36.07"/></g><rect class="cls-3" x="387.03" y="117.12" width="1.23" height="30.17"/><g class="cls-39"><path class="cls-3" d="m391.96,505.18v8.7c13.24,2.08,23.4,13.56,23.4,27.38,0,15.28-12.43,27.71-27.71,27.71s-27.71-12.43-27.71-27.71c0-13.81,10.16-25.3,23.4-27.38v-8.7c-18.03,2.13-32.02,17.46-32.02,36.07,0,20.07,16.27,36.33,36.33,36.33s36.33-16.27,36.33-36.33c0-18.61-13.99-33.94-32.02-36.07"/></g><rect class="cls-3" x="387.03" y="505.54" width="1.23" height="30.17"/><g class="cls-35"><path class="cls-3" d="m414.93,256.1c-2.81,12.33-13.85,21.55-27.01,21.55-15.28,0-27.71-12.43-27.71-27.71,0-13.38,9.54-24.58,22.17-27.15v-8.76c-17.44,2.67-30.79,17.73-30.79,35.91,0,20.07,16.27,36.33,36.33,36.33,17.96,0,32.88-13.04,35.8-30.18h-8.79Z"/></g><polygon class="cls-3" points="391.12 247.6 421.95 216.78 421.95 248.09 423.18 248.09 423.18 214.4 390.38 214.4 390.38 215.63 421.35 215.63 390.25 246.73 391.12 247.6"/><g class="cls-31"><path class="cls-3" d="m414.93,644.52c-2.81,12.33-13.85,21.55-27.01,21.55-15.28,0-27.71-12.43-27.71-27.71,0-13.38,9.54-24.58,22.17-27.15v-8.76c-17.44,2.67-30.79,17.73-30.79,35.91,0,20.07,16.27,36.33,36.33,36.33,17.96,0,32.88-13.04,35.8-30.18h-8.79Z"/></g><polygon class="cls-3" points="391.12 636.02 421.95 605.2 421.95 636.51 423.18 636.51 423.18 602.82 390.38 602.82 390.38 604.05 421.35 604.05 390.25 635.15 391.12 636.02"/><g class="cls-36"><path class="cls-3" d="m387.65,373.5c-15.28,0-27.71-12.43-27.71-27.71s12.43-27.71,27.71-27.71,27.71,12.43,27.71,27.71-12.43,27.71-27.71,27.71m0-64.05c-20.07,0-36.33,16.27-36.33,36.33s16.27,36.33,36.33,36.33,36.33-16.27,36.33-36.33-16.27-36.33-36.33-36.33"/></g><rect class="cls-3" x="387.03" y="326.7" width="1.23" height="26.48"/><rect class="cls-3" x="387.03" y="356.26" width="1.23" height="8.62"/><g class="cls-33"><path class="cls-3" d="m387.65,761.92c-15.28,0-27.71-12.43-27.71-27.71s12.43-27.71,27.71-27.71,27.71,12.43,27.71,27.71-12.43,27.71-27.71,27.71m0-64.05c-20.07,0-36.33,16.27-36.33,36.33s16.27,36.33,36.33,36.33,36.33-16.27,36.33-36.33-16.27-36.33-36.33-36.33"/></g><rect class="cls-3" x="387.03" y="715.12" width="1.23" height="26.48"/><rect class="cls-3" x="387.03" y="744.68" width="1.23" height="8.62"/><g class="cls-38"><path class="cls-3" d="m387.12,471.86c-13.14,0-23.84-10.61-24.01-23.71h-8.62c.16,17.88,14.71,32.33,32.63,32.33s32.46-14.45,32.63-32.33h-8.62c-.17,13.1-10.87,23.71-24.01,23.71"/></g><polygon class="cls-3" points="387.23 405.31 347.89 445.41 348.77 446.27 387.25 407.05 426.55 445.61 427.41 444.73 387.23 405.31"/><g class="cls-32"><path class="cls-3" d="m387.12,860.28c-13.14,0-23.84-10.61-24.01-23.71h-8.62c.16,17.88,14.71,32.33,32.63,32.33s32.46-14.45,32.63-32.33h-8.62c-.17,13.1-10.87,23.71-24.01,23.71"/></g><polygon class="cls-3" points="387.23 793.73 347.89 833.83 348.77 834.69 387.25 795.47 426.55 834.03 427.41 833.15 387.23 793.73"/><g class="cls-41"><path class="cls-3" d="m387.12,957.39c-13.14,0-23.84-10.61-24.01-23.71h-8.62c.16,17.88,14.71,32.33,32.63,32.33s32.46-14.45,32.63-32.33h-8.62c-.17,13.1-10.87,23.71-24.01,23.71"/></g><polygon class="cls-3" points="387.23 890.83 347.89 930.93 348.77 931.8 387.25 892.58 426.55 931.14 427.41 930.26 387.23 890.83"/><g class="cls-62"><path class="cls-3" d="m1224.66,116.76v8.7c13.24,2.08,23.4,13.56,23.4,27.38,0,15.28-12.43,27.71-27.71,27.71s-27.71-12.43-27.71-27.71c0-13.81,10.16-25.3,23.4-27.38v-8.7c-18.03,2.13-32.02,17.46-32.02,36.07,0,20.07,16.27,36.33,36.33,36.33s36.33-16.27,36.33-36.33c0-18.61-13.99-33.94-32.02-36.07"/></g><rect class="cls-3" x="1219.74" y="117.12" width="1.23" height="30.17"/><g class="cls-60"><path class="cls-3" d="m1224.66,505.18v8.7c13.24,2.08,23.4,13.56,23.4,27.38,0,15.28-12.43,27.71-27.71,27.71s-27.71-12.43-27.71-27.71c0-13.81,10.16-25.3,23.4-27.38v-8.7c-18.03,2.13-32.02,17.46-32.02,36.07,0,20.07,16.27,36.33,36.33,36.33s36.33-16.27,36.33-36.33c0-18.61-13.99-33.94-32.02-36.07"/></g><rect class="cls-3" x="1219.74" y="505.54" width="1.23" height="30.17"/><g class="cls-63"><path class="cls-3" d="m1247.63,256.1c-2.81,12.33-13.85,21.55-27.01,21.55-15.28,0-27.71-12.43-27.71-27.71,0-13.38,9.54-24.58,22.17-27.15v-8.76c-17.44,2.67-30.79,17.73-30.79,35.91,0,20.07,16.27,36.33,36.33,36.33,17.96,0,32.88-13.04,35.8-30.18h-8.79Z"/></g><polygon class="cls-3" points="1223.82 247.6 1254.65 216.78 1254.65 248.09 1255.88 248.09 1255.88 214.4 1223.08 214.4 1223.08 215.63 1254.05 215.63 1222.95 246.73 1223.82 247.6"/><g class="cls-58"><path class="cls-3" d="m1247.63,644.52c-2.81,12.33-13.85,21.55-27.01,21.55-15.28,0-27.71-12.43-27.71-27.71,0-13.38,9.54-24.58,22.17-27.15v-8.76c-17.44,2.67-30.79,17.73-30.79,35.91,0,20.07,16.27,36.33,36.33,36.33,17.96,0,32.88-13.04,35.8-30.18h-8.79Z"/></g><polygon class="cls-3" points="1223.82 636.02 1254.65 605.2 1254.65 636.51 1255.88 636.51 1255.88 602.82 1223.08 602.82 1223.08 604.05 1254.05 604.05 1222.95 635.15 1223.82 636.02"/><g class="cls-59"><path class="cls-3" d="m1220.35,373.5c-15.28,0-27.71-12.43-27.71-27.71s12.43-27.71,27.71-27.71,27.71,12.43,27.71,27.71-12.43,27.71-27.71,27.71m0-64.05c-20.07,0-36.33,16.27-36.33,36.33s16.27,36.33,36.33,36.33,36.33-16.27,36.33-36.33-16.27-36.33-36.33-36.33"/></g><rect class="cls-3" x="1219.74" y="326.7" width="1.23" height="26.48"/><rect class="cls-3" x="1219.74" y="356.26" width="1.23" height="8.62"/><g class="cls-56"><path class="cls-3" d="m1220.35,761.92c-15.28,0-27.71-12.43-27.71-27.71s12.43-27.71,27.71-27.71,27.71,12.43,27.71,27.71-12.43,27.71-27.71,27.71m0-64.05c-20.07,0-36.33,16.27-36.33,36.33s16.27,36.33,36.33,36.33,36.33-16.27,36.33-36.33-16.27-36.33-36.33-36.33"/></g><rect class="cls-3" x="1219.74" y="715.12" width="1.23" height="26.48"/><rect class="cls-3" x="1219.74" y="744.68" width="1.23" height="8.62"/><g class="cls-61"><path class="cls-3" d="m1219.82,471.86c-13.14,0-23.84-10.61-24.01-23.71h-8.62c.16,17.88,14.71,32.33,32.63,32.33s32.46-14.45,32.63-32.33h-8.62c-.17,13.1-10.87,23.71-24.01,23.71"/></g><polygon class="cls-3" points="1219.93 405.31 1180.59 445.41 1181.47 446.27 1219.95 407.05 1259.25 445.61 1260.11 444.73 1219.93 405.31"/><g class="cls-64"><path class="cls-3" d="m1219.82,860.28c-13.14,0-23.84-10.61-24.01-23.71h-8.62c.16,17.88,14.71,32.33,32.63,32.33s32.46-14.45,32.63-32.33h-8.62c-.17,13.1-10.87,23.71-24.01,23.71"/></g><polygon class="cls-3" points="1219.93 793.73 1180.59 833.83 1181.47 834.69 1219.95 795.47 1259.25 834.03 1260.11 833.15 1219.93 793.73"/><g class="cls-40"><path class="cls-3" d="m1219.82,957.39c-13.14,0-23.84-10.61-24.01-23.71h-8.62c.16,17.88,14.71,32.33,32.63,32.33s32.46-14.45,32.63-32.33h-8.62c-.17,13.1-10.87,23.71-24.01,23.71"/></g><polygon class="cls-3" points="1219.93 890.83 1180.59 930.93 1181.47 931.8 1219.95 892.58 1259.25 931.14 1260.11 930.26 1219.93 890.83"/><g class="cls-57"><path class="cls-3" d="m1641.01,116.76v8.7c13.24,2.08,23.4,13.56,23.4,27.38,0,15.28-12.43,27.71-27.71,27.71s-27.71-12.43-27.71-27.71c0-13.81,10.16-25.3,23.4-27.38v-8.7c-18.03,2.13-32.02,17.46-32.02,36.07,0,20.07,16.27,36.33,36.33,36.33s36.33-16.27,36.33-36.33c0-18.61-13.99-33.94-32.02-36.07"/></g><rect class="cls-3" x="1636.09" y="117.12" width="1.23" height="30.17"/><g class="cls-117"><path class="cls-3" d="m1641.01,505.18v8.7c13.24,2.08,23.4,13.56,23.4,27.38,0,15.28-12.43,27.71-27.71,27.71s-27.71-12.43-27.71-27.71c0-13.81,10.16-25.3,23.4-27.38v-8.7c-18.03,2.13-32.02,17.46-32.02,36.07,0,20.07,16.27,36.33,36.33,36.33s36.33-16.27,36.33-36.33c0-18.61-13.99-33.94-32.02-36.07"/></g><rect class="cls-3" x="1636.09" y="505.54" width="1.23" height="30.17"/><g class="cls-123"><path class="cls-3" d="m1663.98,256.1c-2.81,12.33-13.85,21.55-27.01,21.55-15.28,0-27.71-12.43-27.71-27.71,0-13.38,9.54-24.58,22.17-27.15v-8.76c-17.44,2.67-30.79,17.73-30.79,35.91,0,20.07,16.27,36.33,36.33,36.33,17.96,0,32.88-13.04,35.8-30.18h-8.79Z"/></g><polygon class="cls-3" points="1640.17 247.6 1671 216.78 1671 248.09 1672.23 248.09 1672.23 214.4 1639.43 214.4 1639.43 215.63 1670.4 215.63 1639.3 246.73 1640.17 247.6"/><g class="cls-118"><path class="cls-3" d="m1663.98,644.52c-2.81,12.33-13.85,21.55-27.01,21.55-15.28,0-27.71-12.43-27.71-27.71,0-13.38,9.54-24.58,22.17-27.15v-8.76c-17.44,2.67-30.79,17.73-30.79,35.91,0,20.07,16.27,36.33,36.33,36.33,17.96,0,32.88-13.04,35.8-30.18h-8.79Z"/></g><polygon class="cls-3" points="1640.17 636.02 1671 605.2 1671 636.51 1672.23 636.51 1672.23 602.82 1639.43 602.82 1639.43 604.05 1670.4 604.05 1639.3 635.15 1640.17 636.02"/><g class="cls-119"><path class="cls-3" d="m1636.7,373.5c-15.28,0-27.71-12.43-27.71-27.71s12.43-27.71,27.71-27.71,27.71,12.43,27.71,27.71-12.43,27.71-27.71,27.71m0-64.05c-20.07,0-36.33,16.27-36.33,36.33s16.27,36.33,36.33,36.33,36.33-16.27,36.33-36.33-16.27-36.33-36.33-36.33"/></g><rect class="cls-3" x="1636.09" y="326.7" width="1.23" height="26.48"/><rect class="cls-3" x="1636.09" y="356.26" width="1.23" height="8.62"/><g class="cls-122"><path class="cls-3" d="m1636.7,761.92c-15.28,0-27.71-12.43-27.71-27.71s12.43-27.71,27.71-27.71,27.71,12.43,27.71,27.71-12.43,27.71-27.71,27.71m0-64.05c-20.07,0-36.33,16.27-36.33,36.33s16.27,36.33,36.33,36.33,36.33-16.27,36.33-36.33-16.27-36.33-36.33-36.33"/></g><rect class="cls-3" x="1636.09" y="715.12" width="1.23" height="26.48"/><rect class="cls-3" x="1636.09" y="744.68" width="1.23" height="8.62"/><g class="cls-116"><path class="cls-3" d="m1636.18,471.86c-13.14,0-23.84-10.61-24.01-23.71h-8.62c.16,17.88,14.71,32.33,32.63,32.33s32.46-14.45,32.63-32.33h-8.62c-.17,13.1-10.87,23.71-24.01,23.71"/></g><polygon class="cls-3" points="1636.28 405.31 1596.94 445.41 1597.82 446.27 1636.3 407.05 1675.6 445.61 1676.47 444.73 1636.28 405.31"/><g class="cls-125"><path class="cls-3" d="m1636.18,860.28c-13.14,0-23.84-10.61-24.01-23.71h-8.62c.16,17.88,14.71,32.33,32.63,32.33s32.46-14.45,32.63-32.33h-8.62c-.17,13.1-10.87,23.71-24.01,23.71"/></g><polygon class="cls-3" points="1636.28 793.73 1596.94 833.83 1597.82 834.69 1636.3 795.47 1675.6 834.03 1676.47 833.15 1636.28 793.73"/><g class="cls-120"><path class="cls-3" d="m1636.18,957.39c-13.14,0-23.84-10.61-24.01-23.71h-8.62c.16,17.88,14.71,32.33,32.63,32.33s32.46-14.45,32.63-32.33h-8.62c-.17,13.1-10.87,23.71-24.01,23.71"/></g><polygon class="cls-3" points="1636.28 890.83 1596.94 930.93 1597.82 931.8 1636.3 892.58 1675.6 931.14 1676.47 930.26 1636.28 890.83"/><g class="cls-124"><path class="cls-3" d="m179.47,179.29c-15.28,0-27.71-12.43-27.71-27.71s12.43-27.71,27.71-27.71,27.71,12.43,27.71,27.71-12.43,27.71-27.71,27.71m0-64.05c-20.07,0-36.33,16.27-36.33,36.33s16.27,36.33,36.33,36.33,36.33-16.27,36.33-36.33-16.27-36.33-36.33-36.33"/></g><rect class="cls-3" x="178.86" y="132.49" width="1.23" height="26.48"/><rect class="cls-3" x="178.86" y="162.05" width="1.23" height="8.62"/><g class="cls-121"><path class="cls-3" d="m179.47,567.71c-15.28,0-27.71-12.43-27.71-27.71s12.43-27.71,27.71-27.71,27.71,12.43,27.71,27.71-12.43,27.71-27.71,27.71m0-64.05c-20.07,0-36.33,16.27-36.33,36.33s16.27,36.33,36.33,36.33,36.33-16.27,36.33-36.33-16.27-36.33-36.33-36.33"/></g><rect class="cls-3" x="178.86" y="520.91" width="1.23" height="26.48"/><rect class="cls-3" x="178.86" y="550.47" width="1.23" height="8.62"/><g class="cls-109"><path class="cls-3" d="m178.95,277.65c-13.14,0-23.84-10.61-24.01-23.71h-8.62c.16,17.88,14.71,32.33,32.63,32.33s32.46-14.45,32.63-32.33h-8.62c-.17,13.1-10.87,23.71-24.01,23.71"/></g><polygon class="cls-3" points="179.06 211.1 139.71 251.2 140.59 252.06 179.07 212.84 218.38 251.4 219.24 250.52 179.06 211.1"/><g class="cls-108"><path class="cls-3" d="m178.95,666.07c-13.14,0-23.84-10.61-24.01-23.71h-8.62c.16,17.88,14.71,32.33,32.63,32.33s32.46-14.45,32.63-32.33h-8.62c-.17,13.1-10.87,23.71-24.01,23.71"/></g><polygon class="cls-3" points="179.06 599.52 139.71 639.62 140.59 640.48 179.07 601.26 218.38 639.82 219.24 638.94 179.06 599.52"/><g class="cls-107"><path class="cls-3" d="m183.79,310.97v8.7c13.24,2.08,23.4,13.56,23.4,27.38,0,15.28-12.43,27.71-27.71,27.71s-27.71-12.43-27.71-27.71c0-13.81,10.16-25.3,23.4-27.38v-8.7c-18.03,2.13-32.02,17.46-32.02,36.07,0,20.07,16.27,36.33,36.33,36.33s36.33-16.27,36.33-36.33c0-18.61-13.99-33.94-32.02-36.07"/></g><rect class="cls-3" x="178.86" y="311.33" width="1.23" height="30.17"/><g class="cls-106"><path class="cls-3" d="m183.79,699.39v8.7c13.24,2.08,23.4,13.56,23.4,27.38,0,15.28-12.43,27.71-27.71,27.71s-27.71-12.43-27.71-27.71c0-13.81,10.16-25.3,23.4-27.38v-8.7c-18.03,2.13-32.02,17.46-32.02,36.07,0,20.07,16.27,36.33,36.33,36.33s36.33-16.27,36.33-36.33c0-18.61-13.99-33.94-32.02-36.07"/></g><rect class="cls-3" x="178.86" y="699.75" width="1.23" height="30.17"/><g class="cls-111"><path class="cls-3" d="m206.75,450.31c-2.81,12.33-13.85,21.55-27.01,21.55-15.28,0-27.71-12.43-27.71-27.71,0-13.38,9.54-24.58,22.17-27.15v-8.76c-17.44,2.67-30.79,17.73-30.79,35.91,0,20.07,16.27,36.33,36.33,36.33,17.96,0,32.88-13.04,35.8-30.18h-8.79Z"/></g><polygon class="cls-3" points="182.95 441.81 213.77 410.99 213.77 442.3 215 442.3 215 408.61 182.2 408.61 182.2 409.84 213.18 409.84 182.08 440.94 182.95 441.81"/><g class="cls-110"><path class="cls-3" d="m206.75,838.73c-2.81,12.33-13.85,21.55-27.01,21.55-15.28,0-27.71-12.43-27.71-27.71,0-13.38,9.54-24.58,22.17-27.15v-8.76c-17.44,2.67-30.79,17.73-30.79,35.91,0,20.07,16.27,36.33,36.33,36.33,17.96,0,32.88-13.04,35.8-30.18h-8.79Z"/></g><polygon class="cls-3" points="182.95 830.23 213.77 799.41 213.77 830.72 215 830.72 215 797.03 182.2 797.03 182.2 798.26 213.18 798.26 182.08 829.36 182.95 830.23"/><g class="cls-112"><path class="cls-3" d="m206.75,935.83c-2.81,12.33-13.85,21.55-27.01,21.55-15.28,0-27.71-12.43-27.71-27.71,0-13.38,9.54-24.58,22.17-27.15v-8.76c-17.44,2.67-30.79,17.73-30.79,35.91,0,20.07,16.27,36.33,36.33,36.33,17.96,0,32.88-13.04,35.8-30.18h-8.79Z"/></g><polygon class="cls-3" points="182.95 927.34 213.77 896.51 213.77 927.83 215 927.83 215 894.13 182.2 894.13 182.2 895.37 213.18 895.37 182.08 926.47 182.95 927.34"/><g class="cls-113"><path class="cls-3" d="m1012.18,179.29c-15.28,0-27.71-12.43-27.71-27.71s12.43-27.71,27.71-27.71,27.71,12.43,27.71,27.71-12.43,27.71-27.71,27.71m0-64.05c-20.07,0-36.33,16.27-36.33,36.33s16.27,36.33,36.33,36.33,36.33-16.27,36.33-36.33-16.27-36.33-36.33-36.33"/></g><rect class="cls-3" x="1011.56" y="132.49" width="1.23" height="26.48"/><rect class="cls-3" x="1011.56" y="162.05" width="1.23" height="8.62"/><g class="cls-114"><path class="cls-3" d="m1012.18,567.71c-15.28,0-27.71-12.43-27.71-27.71s12.43-27.71,27.71-27.71,27.71,12.43,27.71,27.71-12.43,27.71-27.71,27.71m0-64.05c-20.07,0-36.33,16.27-36.33,36.33s16.27,36.33,36.33,36.33,36.33-16.27,36.33-36.33-16.27-36.33-36.33-36.33"/></g><rect class="cls-3" x="1011.56" y="520.91" width="1.23" height="26.48"/><rect class="cls-3" x="1011.56" y="550.47" width="1.23" height="8.62"/><g class="cls-115"><path class="cls-3" d="m1011.65,277.65c-13.14,0-23.84-10.61-24.01-23.71h-8.62c.16,17.88,14.71,32.33,32.63,32.33s32.46-14.45,32.63-32.33h-8.62c-.17,13.1-10.87,23.71-24.01,23.71"/></g><polygon class="cls-3" points="1011.76 211.1 972.41 251.2 973.29 252.06 1011.77 212.84 1051.08 251.4 1051.94 250.52 1011.76 211.1"/><g class="cls-140"><path class="cls-3" d="m1011.65,666.07c-13.14,0-23.84-10.61-24.01-23.71h-8.62c.16,17.88,14.71,32.33,32.63,32.33s32.46-14.45,32.63-32.33h-8.62c-.17,13.1-10.87,23.71-24.01,23.71"/></g><polygon class="cls-3" points="1011.76 599.52 972.41 639.62 973.29 640.48 1011.77 601.26 1051.08 639.82 1051.94 638.94 1011.76 599.52"/><g class="cls-141"><path class="cls-3" d="m1016.49,310.97v8.7c13.24,2.08,23.4,13.56,23.4,27.38,0,15.28-12.43,27.71-27.71,27.71s-27.71-12.43-27.71-27.71c0-13.81,10.16-25.3,23.4-27.38v-8.7c-18.03,2.13-32.02,17.46-32.02,36.07,0,20.07,16.27,36.33,36.33,36.33s36.33-16.27,36.33-36.33c0-18.61-13.99-33.94-32.02-36.07"/></g><rect class="cls-3" x="1011.56" y="311.33" width="1.23" height="30.17"/><g class="cls-137"><path class="cls-3" d="m1016.49,699.39v8.7c13.24,2.08,23.4,13.56,23.4,27.38,0,15.28-12.43,27.71-27.71,27.71s-27.71-12.43-27.71-27.71c0-13.81,10.16-25.3,23.4-27.38v-8.7c-18.03,2.13-32.02,17.46-32.02,36.07,0,20.07,16.27,36.33,36.33,36.33s36.33-16.27,36.33-36.33c0-18.61-13.99-33.94-32.02-36.07"/></g><rect class="cls-3" x="1011.56" y="699.75" width="1.23" height="30.17"/><g class="cls-142"><path class="cls-3" d="m1039.46,450.31c-2.81,12.33-13.85,21.55-27.01,21.55-15.28,0-27.71-12.43-27.71-27.71,0-13.38,9.54-24.58,22.17-27.15v-8.76c-17.44,2.67-30.79,17.73-30.79,35.91,0,20.07,16.27,36.33,36.33,36.33,17.96,0,32.88-13.04,35.8-30.18h-8.79Z"/></g><polygon class="cls-3" points="1015.65 441.81 1046.47 410.99 1046.47 442.3 1047.71 442.3 1047.71 408.61 1014.91 408.61 1014.91 409.84 1045.88 409.84 1014.78 440.94 1015.65 441.81"/><g class="cls-143"><path class="cls-3" d="m1039.46,838.73c-2.81,12.33-13.85,21.55-27.01,21.55-15.28,0-27.71-12.43-27.71-27.71,0-13.38,9.54-24.58,22.17-27.15v-8.76c-17.44,2.67-30.79,17.73-30.79,35.91,0,20.07,16.27,36.33,36.33,36.33,17.96,0,32.88-13.04,35.8-30.18h-8.79Z"/></g><polygon class="cls-3" points="1015.65 830.23 1046.47 799.41 1046.47 830.72 1047.71 830.72 1047.71 797.03 1014.91 797.03 1014.91 798.26 1045.88 798.26 1014.78 829.36 1015.65 830.23"/><g class="cls-139"><path class="cls-3" d="m1039.46,935.83c-2.81,12.33-13.85,21.55-27.01,21.55-15.28,0-27.71-12.43-27.71-27.71,0-13.38,9.54-24.58,22.17-27.15v-8.76c-17.44,2.67-30.79,17.73-30.79,35.91,0,20.07,16.27,36.33,36.33,36.33,17.96,0,32.88-13.04,35.8-30.18h-8.79Z"/></g><polygon class="cls-3" points="1015.65 927.34 1046.47 896.51 1046.47 927.83 1047.71 927.83 1047.71 894.13 1014.91 894.13 1014.91 895.37 1045.88 895.37 1014.78 926.47 1015.65 927.34"/><g class="cls-138"><path class="cls-3" d="m595.83,179.29c-15.28,0-27.71-12.43-27.71-27.71s12.43-27.71,27.71-27.71,27.71,12.43,27.71,27.71-12.43,27.71-27.71,27.71m0-64.05c-20.07,0-36.33,16.27-36.33,36.33s16.27,36.33,36.33,36.33,36.33-16.27,36.33-36.33-16.27-36.33-36.33-36.33"/></g><rect class="cls-3" x="595.21" y="132.49" width="1.23" height="26.48"/><rect class="cls-3" x="595.21" y="162.05" width="1.23" height="8.62"/><g class="cls-144"><path class="cls-3" d="m595.83,567.71c-15.28,0-27.71-12.43-27.71-27.71s12.43-27.71,27.71-27.71,27.71,12.43,27.71,27.71-12.43,27.71-27.71,27.71m0-64.05c-20.07,0-36.33,16.27-36.33,36.33s16.27,36.33,36.33,36.33,36.33-16.27,36.33-36.33-16.27-36.33-36.33-36.33"/></g><rect class="cls-3" x="595.21" y="520.91" width="1.23" height="26.48"/><rect class="cls-3" x="595.21" y="550.47" width="1.23" height="8.62"/><g class="cls-145"><path class="cls-3" d="m595.3,277.65c-13.14,0-23.84-10.61-24.01-23.71h-8.62c.16,17.88,14.71,32.33,32.63,32.33s32.46-14.45,32.63-32.33h-8.62c-.17,13.1-10.87,23.71-24.01,23.71"/></g><polygon class="cls-3" points="595.41 211.1 556.06 251.2 556.94 252.06 595.42 212.84 634.73 251.4 635.59 250.52 595.41 211.1"/><g class="cls-136"><path class="cls-3" d="m595.3,666.07c-13.14,0-23.84-10.61-24.01-23.71h-8.62c.16,17.88,14.71,32.33,32.63,32.33s32.46-14.45,32.63-32.33h-8.62c-.17,13.1-10.87,23.71-24.01,23.71"/></g><polygon class="cls-3" points="595.41 599.52 556.06 639.62 556.94 640.48 595.42 601.26 634.73 639.82 635.59 638.94 595.41 599.52"/><g class="cls-131"><path class="cls-3" d="m600.14,310.97v8.7c13.24,2.08,23.4,13.56,23.4,27.38,0,15.28-12.43,27.71-27.71,27.71s-27.71-12.43-27.71-27.71c0-13.81,10.16-25.3,23.4-27.38v-8.7c-18.03,2.13-32.02,17.46-32.02,36.07,0,20.07,16.27,36.33,36.33,36.33s36.33-16.27,36.33-36.33c0-18.61-13.99-33.94-32.02-36.07"/></g><rect class="cls-3" x="595.21" y="311.33" width="1.23" height="30.17"/><g class="cls-135"><path class="cls-3" d="m600.14,699.39v8.7c13.24,2.08,23.4,13.56,23.4,27.38,0,15.28-12.43,27.71-27.71,27.71s-27.71-12.43-27.71-27.71c0-13.81,10.16-25.3,23.4-27.38v-8.7c-18.03,2.13-32.02,17.46-32.02,36.07,0,20.07,16.27,36.33,36.33,36.33s36.33-16.27,36.33-36.33c0-18.61-13.99-33.94-32.02-36.07"/></g><rect class="cls-3" x="595.21" y="699.75" width="1.23" height="30.17"/><g class="cls-129"><path class="cls-3" d="m623.1,450.31c-2.81,12.33-13.85,21.55-27.01,21.55-15.28,0-27.71-12.43-27.71-27.71,0-13.38,9.54-24.58,22.17-27.15v-8.76c-17.44,2.67-30.79,17.73-30.79,35.91,0,20.07,16.27,36.33,36.33,36.33,17.96,0,32.88-13.04,35.8-30.18h-8.79Z"/></g><polygon class="cls-3" points="599.3 441.81 630.12 410.99 630.12 442.3 631.35 442.3 631.35 408.61 598.55 408.61 598.55 409.84 629.53 409.84 598.43 440.94 599.3 441.81"/><g class="cls-132"><path class="cls-3" d="m623.1,838.73c-2.81,12.33-13.85,21.55-27.01,21.55-15.28,0-27.71-12.43-27.71-27.71,0-13.38,9.54-24.58,22.17-27.15v-8.76c-17.44,2.67-30.79,17.73-30.79,35.91,0,20.07,16.27,36.33,36.33,36.33,17.96,0,32.88-13.04,35.8-30.18h-8.79Z"/></g><polygon class="cls-3" points="599.3 830.23 630.12 799.41 630.12 830.72 631.35 830.72 631.35 797.03 598.55 797.03 598.55 798.26 629.53 798.26 598.43 829.36 599.3 830.23"/><g class="cls-133"><path class="cls-3" d="m623.1,935.83c-2.81,12.33-13.85,21.55-27.01,21.55-15.28,0-27.71-12.43-27.71-27.71,0-13.38,9.54-24.58,22.17-27.15v-8.76c-17.44,2.67-30.79,17.73-30.79,35.91,0,20.07,16.27,36.33,36.33,36.33,17.96,0,32.88-13.04,35.8-30.18h-8.79Z"/></g><polygon class="cls-3" points="599.3 927.34 630.12 896.51 630.12 927.83 631.35 927.83 631.35 894.13 598.55 894.13 598.55 895.37 629.53 895.37 598.43 926.47 599.3 927.34"/><g class="cls-128"><path class="cls-3" d="m1428.53,179.29c-15.28,0-27.71-12.43-27.71-27.71s12.43-27.71,27.71-27.71,27.71,12.43,27.71,27.71-12.43,27.71-27.71,27.71m0-64.05c-20.07,0-36.33,16.27-36.33,36.33s16.27,36.33,36.33,36.33,36.33-16.27,36.33-36.33-16.27-36.33-36.33-36.33"/></g><rect class="cls-3" x="1427.91" y="132.49" width="1.23" height="26.48"/><rect class="cls-3" x="1427.91" y="162.05" width="1.23" height="8.62"/><g class="cls-126"><path class="cls-3" d="m1428.53,567.71c-15.28,0-27.71-12.43-27.71-27.71s12.43-27.71,27.71-27.71,27.71,12.43,27.71,27.71-12.43,27.71-27.71,27.71m0-64.05c-20.07,0-36.33,16.27-36.33,36.33s16.27,36.33,36.33,36.33,36.33-16.27,36.33-36.33-16.27-36.33-36.33-36.33"/></g><rect class="cls-3" x="1427.91" y="520.91" width="1.23" height="26.48"/><rect class="cls-3" x="1427.91" y="550.47" width="1.23" height="8.62"/><g class="cls-130"><path class="cls-3" d="m1428,277.65c-13.14,0-23.84-10.61-24.01-23.71h-8.62c.16,17.88,14.71,32.33,32.63,32.33s32.46-14.45,32.63-32.33h-8.62c-.17,13.1-10.87,23.71-24.01,23.71"/></g><polygon class="cls-3" points="1428.11 211.1 1388.76 251.2 1389.64 252.06 1428.13 212.84 1467.43 251.4 1468.29 250.52 1428.11 211.1"/><g class="cls-127"><path class="cls-3" d="m1428,666.07c-13.14,0-23.84-10.61-24.01-23.71h-8.62c.16,17.88,14.71,32.33,32.63,32.33s32.46-14.45,32.63-32.33h-8.62c-.17,13.1-10.87,23.71-24.01,23.71"/></g><polygon class="cls-3" points="1428.11 599.52 1388.76 639.62 1389.64 640.48 1428.13 601.26 1467.43 639.82 1468.29 638.94 1428.11 599.52"/><g class="cls-134"><path class="cls-3" d="m1432.84,310.97v8.7c13.24,2.08,23.4,13.56,23.4,27.38,0,15.28-12.43,27.71-27.71,27.71s-27.71-12.43-27.71-27.71c0-13.81,10.16-25.3,23.4-27.38v-8.7c-18.03,2.13-32.02,17.46-32.02,36.07,0,20.07,16.27,36.33,36.33,36.33s36.33-16.27,36.33-36.33c0-18.61-13.99-33.94-32.02-36.07"/></g><rect class="cls-3" x="1427.91" y="311.33" width="1.23" height="30.17"/><g class="cls-105"><path class="cls-3" d="m1432.84,699.39v8.7c13.24,2.08,23.4,13.56,23.4,27.38,0,15.28-12.43,27.71-27.71,27.71s-27.71-12.43-27.71-27.71c0-13.81,10.16-25.3,23.4-27.38v-8.7c-18.03,2.13-32.02,17.46-32.02,36.07,0,20.07,16.27,36.33,36.33,36.33s36.33-16.27,36.33-36.33c0-18.61-13.99-33.94-32.02-36.07"/></g><rect class="cls-3" x="1427.91" y="699.75" width="1.23" height="30.17"/><g class="cls-104"><path class="cls-3" d="m1455.81,450.31c-2.81,12.33-13.85,21.55-27.01,21.55-15.28,0-27.71-12.43-27.71-27.71,0-13.38,9.54-24.58,22.17-27.15v-8.76c-17.44,2.67-30.79,17.73-30.79,35.91,0,20.07,16.27,36.33,36.33,36.33,17.96,0,32.88-13.04,35.8-30.18h-8.79Z"/></g><polygon class="cls-3" points="1432 441.81 1462.82 410.99 1462.82 442.3 1464.06 442.3 1464.06 408.61 1431.26 408.61 1431.26 409.84 1462.23 409.84 1431.13 440.94 1432 441.81"/><g class="cls-103"><path class="cls-3" d="m1455.81,838.73c-2.81,12.33-13.85,21.55-27.01,21.55-15.28,0-27.71-12.43-27.71-27.71,0-13.38,9.54-24.58,22.17-27.15v-8.76c-17.44,2.67-30.79,17.73-30.79,35.91,0,20.07,16.27,36.33,36.33,36.33,17.96,0,32.88-13.04,35.8-30.18h-8.79Z"/></g><polygon class="cls-3" points="1432 830.23 1462.82 799.41 1462.82 830.72 1464.06 830.72 1464.06 797.03 1431.26 797.03 1431.26 798.26 1462.23 798.26 1431.13 829.36 1432 830.23"/><path class="cls-3" d="m1455.81,935.83c-2.81,12.33-13.85,21.55-27.01,21.55-15.28,0-27.71-12.43-27.71-27.71,0-13.38,9.54-24.58,22.17-27.15v-8.76c-17.44,2.67-30.79,17.73-30.79,35.91,0,20.07,16.27,36.33,36.33,36.33,17.96,0,32.88-13.04,35.8-30.18h-8.79Z"/><rect class="cls-1" width="1920" height="1080"/><polygon class="cls-3" points="1432 927.34 1462.82 896.51 1462.82 927.83 1464.06 927.83 1464.06 894.13 1431.26 894.13 1431.26 895.37 1462.23 895.37 1431.13 926.47 1432 927.34"/></svg>